<svg xmlns="http://www.w3.org/2000/svg" version="1.1" xmlns:xlink="http://www.w3.org/1999/xlink" xmlns:svgjs="http://svgjs.dev/svgjs" viewBox="0 0 600 600"><path d="M364.67064415480365 194.9101915188168C359.43112439975806 193.41318732773607 282.3353309935894 176.7964219875668 247.90419518019428 178.74252794459804C213.4730593667991 180.6886339016293 186.5269438730247 193.86227637802904 158.08382927443256 206.5868272610043C129.64071467584046 219.31137814397954 89.67065750624408 240.8682756252621 77.24550758864154 255.08983324244952C64.820357671039 269.31139085963696 71.10777985121479 281.13773058131653 83.53292976881733 291.91617296412903C95.95807968641986 302.69461534694165 128.74251495863666 315.1197684434586 151.79640709425678 319.76048753932446C174.8502992298769 324.4012066351904 196.70658368930887 319.16168688014477 221.85628258253803 319.76048753932446C247.0059814757672 320.35928819850415 276.0478922830589 322.7544908352229 302.6946004536318 323.3532914944026C329.3413086242047 323.95209215358227 359.28143822218647 324.1017910468115 381.73653160597553 323.3532914944026C404.1916249897646 322.60479194199377 418.4131876932151 321.25750190293127 437.42516075636615 318.86229417994946C456.4371338195172 316.46708645696776 482.33531700636615 313.3233639227882 495.8083699848818 308.9820451565121C509.2814229633974 304.64072639023595 514.5209605203635 295.50899217799633 518.2634786274599 292.8143815822932C522.0059967345562 290.11977098658997 516.3173726704287 296.70659858261877 518.2634786274599 292.8143815822932C520.2095845844912 288.92216458196754 529.0419108377463 278.59281633571106 529.9401143696474 269.4610795803401C530.8383179015484 260.329342824969 530.9880269673037 247.15569780543788 523.6526998188662 238.0239610500668C516.3173726704287 228.8922242946957 504.3413289692568 221.55688697373216 485.9281514790224 214.67065904811366C467.51497398878803 207.78443112249516 441.7664490050641 201.19761115586107 413.1736348774599 196.70659349635585C384.5808207498557 192.21557583685063 336.67665357456275 189.22155982529466 314.3712667133974 187.7245530910824C292.065879852232 186.22754635687016 270.95808413689997 186.52694668646 279.3413137104677 187.7245530910824C287.72454328403546 188.92215949570482 369.91016390984925 196.4071957098975 364.67064415480365 194.9101915188168C359.43112439975806 193.41318732773607 282.3353309935894 176.7964219875668 247.90419518019428 178.74252794459804 " fill="hsl(35, 86%, 69%)" stroke-width="0" stroke="hsl(340, 45%, 30%)" stroke-opacity="0.05"></path><defs><linearGradient id="SvgjsLinearGradient1004"><stop stop-color="hsl(340, 45%, 50%)" offset="0"></stop><stop stop-color="hsl(340, 45%, 80%)" offset="1"></stop></linearGradient><radialGradient id="SvgjsRadialGradient1005"><stop stop-color="hsl(340, 45%, 50%)" offset="0"></stop><stop stop-color="hsl(340, 45%, 80%)" offset="1"></stop></radialGradient></defs><path d="M283.8323227288455 104.1916244415454C278.5928029737999 102.69462025046468 201.4970095676313 86.0778549102954 167.06587375423612 88.02396086732665C132.63473794084095 89.9700668243579 105.68862244706654 103.14370930075765 77.2455078484744 115.8682601837329C48.802393249882286 128.59281106670815 8.832336080285927 150.1497085479907 -3.592813837316612 164.3712661651782C-16.01796375491915 178.5928237823657 -9.73054157474337 190.4191635040454 2.694608342859169 201.1976058868579C15.119758260461708 211.9760482696704 47.904193532678505 224.4012013661873 70.95808566829862 229.0419204620532C94.01197780391874 233.68263955791912 115.86826226335072 228.44311980287353 141.01796115657987 229.0419204620532C166.16766004980903 229.6407211212329 195.20957085710072 232.03592375795165 221.85627902767362 232.63472441713134C248.50298719824656 233.23352507631103 278.4431167962283 233.3832239695402 300.8982101800174 232.63472441713134C323.35330356380643 231.88622486472246 337.57486626725694 230.53893482565996 356.586839330408 228.1437271026782C375.59881239355906 225.74851937969646 401.496995580408 222.60479684551677 414.9700485589236 218.2634780792407C428.44310153743925 213.92215931296465 433.6826390944054 204.7904251007251 437.42515720150175 202.09581450502196C441.1676753085981 199.40120390931884 435.4790512444705 205.9880315053475 437.42515720150175 202.09581450502196C439.371263158533 198.20359750469643 448.2035894117882 187.87424925843993 449.10179294368925 178.74251250306884C449.9999964755903 169.61077574769774 450.1497055413455 156.4371307281665 442.814378392908 147.3053939727954C435.4790512444705 138.1736572174243 423.5030075432986 130.83831989646077 405.08983005306425 123.95209197084228C386.6766525628299 117.06586404522378 360.92812757910593 110.47904407858968 332.33531345150175 105.98802641908446C303.74249932389756 101.49700875957924 255.8383321486046 98.50299274802327 233.53294528743925 97.00598601381103C211.22755842627387 95.50897927959878 190.11976271094184 95.80837960918862 198.50299228450956 97.00598601381103C206.88622185807728 98.20359241843343 289.0718424838911 105.68862863262612 283.8323227288455 104.1916244415454C278.5928029737999 102.69462025046468 201.4970095676313 86.0778549102954 167.06587375423612 88.02396086732665 " fill-opacity="1" fill="none" opacity="1" stroke-opacity="1" stroke-width="5" stroke="#00a1cf" transform="matrix(1,0,0,1,75,75)"></path></svg>