<svg xmlns="http://www.w3.org/2000/svg" version="1.1" xmlns:xlink="http://www.w3.org/1999/xlink" xmlns:svgjs="http://svgjs.dev/svgjs" viewBox="0 0 800 800"><defs><linearGradient x1="50%" y1="0%" x2="50%" y2="100%" id="ccchaos-grad"><stop stop-color="hsl(206, 75%, 49%)" stop-opacity="1" offset="0%"></stop><stop stop-color="hsl(331, 90%, 56%)" stop-opacity="1" offset="100%"></stop></linearGradient></defs><g stroke-width="2" stroke="url(#ccchaos-grad)" fill="none" stroke-linecap="round"><path d="M422.48 106.71C432.88 109.55 443.14 113.07 453.19 117.1 463.2 121.07 472.92 125.29 482.24 129.63 491.38 133.57 499.95 137.47 507.79 141.26 515.26 144.49 521.82 147.59 527.33 150.58 538.5 157.7 547.92 168.65 551.98 173.32 556.64 176.67 562.96 180.58 571.31 185.06 581.97 189.76 594.72 195.06 609.27 200.95 624.98 207.11 641.06 213.84 656.43 221.08 670.02 228.58 680.72 236.55 687.49 244.91 690.2 253.48 688.35 262.39 682.32 271.57 673.81 280.88 663.61 290.41 653.5 300.08 646.01 309.84 642.08 319.7 642.93 329.59 649.32 339.53 660.38 349.47 674.8 359.36 690.79 369.27 705.69 379.1 716.98 388.81 723.1 398.51 722.55 407.85 715.58 416.8 703.72 425.74 688.44 434.3 672.05 442.46 656.93 450.62 644.77 458.41 636.77 465.84 633.81 473.31 635.3 480.47 640.29 487.36 648.09 494.38 656.52 501.22 664.01 507.93 669.94 514.89 672.58 521.86 671.45 528.91 666.86 536.36 658.58 544.02 647.3 551.96 633.85 560.42 618.96 569.26 603.55 578.48 588.24 588.24 573.71 598.37 560.41 608.8 548.5 619.59 538.13 630.49 529.18 641.34 521.66 652.14 515.16 662.53 509.35 672.26 504.38 681.37 499.55 689.39 494.59 696.08 489.9 701.61 484.73 705.48 478.96 707.55 473.15 708.26 466.62 707.14 459.34 704.26 451.98 700.32 443.9 695.01 435.13 688.57 426.32 681.94 416.87 674.88 406.84 667.75 396.8 661.51 386.46 656 375.88 651.46 365.33 648.43 354.56 646.54 343.65 645.75 332.81 646.42 321.87 647.91 310.91 650.01 300.12 652.99 289.43 656.06 278.97 658.94 268.84 661.93 259.11 664.23 249.95 665.63 241.31 666.53 233.41 666.23 226.35 664.68 219.89 662.3 214.31 658.6 209.59 653.66 205.24 647.91 201.5 641.03 198.22 633.18 194.73 624.72 191.24 615.49 187.54 605.68 183.02 595.51 177.97 584.95 172.33 574.13 165.78 563.19 158.81 552.14 151.64 541.08 144.27 530.03 137.33 519.03 131.19 508.15 125.82 497.34 121.78 486.65 119.21 476.11 117.67 465.64 117.41 455.3 118.19 445.11 119.14 434.97 120.33 424.94 121.39 415.03 121.5 405.15 120.98 395.37 119.83 385.71 117.7 376.05 115.5 366.72 113.62 357.74 111.99 348.76 111.51 340.11 112.42 331.82 114.42 323.53 117.92 315.59 122.72 308.03 128.18 300.45 134.32 293.24 140.74 286.4 146.74 279.53 152.38 273 157.49 266.81 161.58 260.53 165.09 254.54 168.17 248.81 170.57 242.91 173.01 237.2 175.77 231.64 178.65 225.81 182.34 220.04 186.98 214.3 192.33 208.21 198.78 202.07 206.26 195.88 214.51 189.29 223.62 182.63 233.39 175.92 243.63 168.88 254.26 161.85 265.1 154.92 276.06 147.83 287.03 140.98 297.94 134.48 308.76 128.11 319.45 122.3 330 117.17 340.41 112.46 350.73 108.61 360.99 105.75 371.16 103.49 381.34 102.29 391.57 102.19 401.77 102.69 412.07 104.21 422.47 106.7" stroke-dasharray="4 7" transform="rotate(0, 400, 400)" opacity="0.37"></path><path d="M419.78 117.5C429.73 120.31 439.32 123.77 448.52 127.72 457.66 131.64 466.33 135.81 474.42 140.13 482.36 144.08 489.6 148.02 496.05 151.88 504.89 156.82 517.78 165.39 522.12 169.21 526.17 172.54 535.57 179.86 543.03 184.24 550.11 187.3 558.87 190.85 569.46 194.91 581.83 199.11 595.71 203.88 610.61 209.18 625.8 214.7 640.53 220.76 653.8 227.31 664.79 234.09 672.6 241.33 676.53 248.98 676.79 256.81 673.13 265 666.11 273.48 657.49 282.09 648 290.94 639.25 299.96 633.4 309.07 631.12 318.31 633.32 327.62 640.49 336.97 651.71 346.36 665.7 355.73 680.89 365.12 694.89 374.47 705.5 383.73 711.4 392.99 711.21 401.93 705.12 410.54 694.42 419.15 680.3 427.43 664.76 435.39 649.93 443.36 637.32 451.03 628.19 458.41 623.48 465.86 622.93 473.08 625.9 480.11 631.99 487.29 639.37 494.36 646.65 501.39 653.28 508.67 657.52 516.01 658.71 523.48 656.99 531.32 651.8 539.39 643.52 547.73 632.8 556.52 620.09 565.63 606.18 575.07 591.64 584.92 577.14 595.04 563.21 605.33 550.08 615.85 538.08 626.36 527.29 636.68 517.7 646.83 509.19 656.48 501.55 665.39 494.82 673.63 488.57 680.78 482.53 686.62 476.94 691.36 471.21 694.53 465.18 696.03 459.28 696.3 452.88 694.9 445.91 691.9 438.94 688 431.35 682.85 423.14 676.71 414.9 670.41 406.06 663.72 396.65 656.96 387.23 651.01 377.5 645.7 367.53 641.24 357.61 638.15 347.5 636.07 337.29 634.98 327.19 635.25 317.08 636.29 307.05 637.91 297.25 640.42 287.66 643.07 278.43 645.62 269.56 648.39 261.2 650.61 253.47 652.11 242.97 653.29 226.44 649.24 220.26 643.78 216.47 639.03 213.06 633.19 209.83 626.4 206.16 619.01 202.28 610.83 198.04 602 192.91 592.79 187.23 583.1 181 573.09 174.01 562.89 166.75 552.49 159.48 542 152.22 531.46 145.56 520.9 139.85 510.4 135 499.93 131.51 489.54 129.47 479.27 128.41 469.05 128.53 458.95 129.57 448.99 130.68 439.06 131.95 429.27 133.02 419.61 133.1 409.98 132.53 400.46 131.31 391.1 129.12 381.73 126.8 372.72 124.77 364.07 122.93 355.4 122.18 347.09 122.75 339.13 124.39 331.16 127.52 323.53 132 316.26 137.24 308.97 143.27 302.01 149.73 295.39 155.94 288.71 161.93 282.33 167.48 276.24 172.08 270.04 176.08 264.08 179.55 258.33 182.22 252.39 184.71 246.58 187.27 240.89 189.7 234.92 192.69 228.99 196.4 223.06 200.61 216.79 205.81 210.48 211.97 204.13 218.85 197.42 226.66 190.66 235.24 183.89 244.39 176.84 254.11 169.86 264.22 163.01 274.62 156.06 285.2 149.4 295.85 143.12 306.57 137.01 317.24 131.46 327.82 126.61 338.37 122.18 348.81 118.6 359.13 115.97 369.41 113.92 379.6 112.89 389.71 112.9 399.8 113.47 409.83 115.02 419.77 117.49" stroke-dasharray="1 5" transform="rotate(4.04, 400, 400)" opacity="0.67"></path><path d="M413 128.28C422.4 131.05 431.31 134.45 439.71 138.32 448.05 142.18 455.8 146.3 462.92 150.57 469.91 154.53 476.2 158.49 481.76 162.4 489.52 167.49 501.7 176.43 506.74 180.42 512.37 183.88 527.19 191.16 538.04 195.33 547.24 198.18 557.92 201.44 570.04 205.15 583.32 208.94 597.43 213.23 611.81 218.01 625.74 222.96 638.53 228.41 649.31 234.33 657.57 240.43 662.59 246.99 663.96 253.95 662.2 261.07 657.21 268.55 649.68 276.34 641.34 284.25 632.83 292.42 625.55 300.8 621.33 309.25 620.6 317.86 623.99 326.58 631.79 335.35 643.05 344.18 656.57 353.04 670.94 361.91 684.06 370.78 694.02 379.61 699.7 388.45 699.83 397.03 694.55 405.34 684.97 413.65 672.02 421.7 657.41 429.49 643.01 437.31 630.2 444.9 620.2 452.29 613.98 459.75 611.54 467.06 612.51 474.25 616.73 481.6 622.71 488.91 629.29 496.23 636 503.8 641.19 511.47 644.09 519.28 644.75 527.43 642.34 535.8 636.99 544.42 629.21 553.41 619.11 562.66 607.33 572.15 594.39 581.95 580.84 591.91 567.23 601.94 553.81 612.06 541.01 622.06 529.05 631.76 517.94 641.2 507.78 650.06 498.49 658.13 490.04 665.52 482.23 671.82 474.87 676.84 468.04 680.84 461.36 683.37 454.66 684.35 448.19 684.23 441.49 682.6 434.47 679.53 427.49 675.68 420.09 670.72 412.22 664.86 404.34 658.9 395.98 652.57 387.15 646.17 378.32 640.5 369.25 635.39 360.02 631.03 350.84 627.9 341.56 625.66 332.28 624.31 323.12 624.2 314.05 624.82 305.18 625.99 296.54 628.02 288.22 630.24 280.34 632.45 272.8 634.94 265.8 637.03 259.45 638.52 250.81 639.99 237.16 637.47 231.77 633.17 228.18 629.32 224.72 624.45 221.23 618.66 217.13 612.3 212.68 605.15 207.77 597.32 202 589.09 195.71 580.33 188.97 571.18 181.66 561.8 174.26 552.15 167.04 542.33 160.04 532.42 153.79 522.43 148.6 512.42 144.34 502.4 141.43 492.42 139.94 482.52 139.33 472.64 139.8 462.85 141.07 453.19 142.31 443.56 143.62 434.04 144.66 424.67 144.71 415.32 144.08 406.09 142.8 397.02 140.54 387.95 138.14 379.23 135.97 370.87 133.95 362.49 132.94 354.46 133.17 346.78 134.43 339.07 137.17 331.7 141.26 324.66 146.2 317.57 152.04 310.79 158.44 304.31 164.77 297.76 171.03 291.46 176.97 285.41 182.09 279.23 186.63 273.24 190.6 267.42 193.69 261.39 196.45 255.47 199.07 249.63 201.33 243.51 203.89 237.41 206.94 231.31 210.24 224.89 214.34 218.44 219.29 211.95 224.82 205.16 231.26 198.35 238.51 191.57 246.34 184.57 254.85 177.67 263.88 170.95 273.31 164.19 283.08 157.74 293.06 151.72 303.23 145.88 313.48 140.63 323.71 136.07 334 131.93 344.22 128.62 354.3 126.22 364.41 124.38 374.38 123.5 384.17 123.62 393.97 124.26 403.6 125.83 412.99 128.28" stroke-dasharray="6 9" transform="rotate(8.08, 400, 400)" opacity="0.49"></path><path d="M403.54 139.07C412.35 141.79 420.62 145.11 428.34 148.91 436.02 152.69 443.1 156.74 449.57 160.96 455.99 164.91 461.79 168.88 466.99 172.82 474.55 178.04 487.94 187.35 494.58 191.52 499.65 193.91 505.18 196.37 511.42 198.92 518.74 201.24 527.11 203.77 536.66 206.55 547.42 209.25 559.31 212.3 572.12 215.72 585.46 219.18 598.97 223.08 612.07 227.42 624.16 231.87 634.61 236.78 642.72 242.13 648.3 247.62 650.77 253.54 649.97 259.86 646.66 266.31 640.83 273.12 633.23 280.25 625.51 287.49 618.18 295 612.44 302.74 609.81 310.55 610.51 318.55 614.93 326.69 623.21 334.86 634.41 343.15 647.39 351.5 660.95 359.87 673.21 368.29 682.53 376.71 687.98 385.14 688.41 393.38 683.89 401.41 675.38 409.45 663.59 417.3 649.96 424.97 636.14 432.66 623.35 440.2 612.72 447.6 605.27 455.09 601.13 462.49 600.2 469.84 602.47 477.34 606.81 484.85 612.28 492.42 618.52 500.21 624.02 508.13 627.99 516.2 630.42 524.56 630.33 533.11 627.62 541.87 622.7 550.93 615.39 560.18 606.12 569.58 595.39 579.19 583.54 588.86 571.07 598.49 558.27 608.11 545.57 617.5 533.27 626.52 521.39 635.2 510.2 643.25 499.73 650.47 489.9 657.01 480.73 662.49 472.12 666.74 464.01 670.05 456.25 671.99 448.7 672.51 441.42 672.06 434.15 670.25 426.8 667.14 419.55 663.37 412.08 658.6 404.35 653.03 396.64 647.4 388.62 641.43 380.3 635.39 371.98 630 363.57 625.09 355.12 620.83 346.72 617.67 338.34 615.31 330.08 613.73 321.92 613.28 313.97 613.5 306.31 614.24 298.85 615.81 291.79 617.6 285.2 619.44 275.98 622.56 260.66 626.54 254.49 626.62 248.76 625.19 237.94 616.83 232.02 609.96 227.31 604.58 222.18 598.4 216.56 591.55 210.17 584.31 203.36 576.5 196.25 568.25 188.78 559.74 181.41 550.91 174.42 541.84 167.81 532.64 162.09 523.3 157.51 513.88 153.88 504.42 151.59 494.94 150.62 485.49 150.44 476.04 151.22 466.65 152.67 457.36 154 448.08 155.32 438.9 156.32 429.85 156.31 420.81 155.62 411.89 154.28 403.11 151.98 394.34 149.52 385.91 147.23 377.81 145.05 369.71 143.79 361.93 143.7 354.48 144.57 346.99 146.87 339.82 150.54 332.94 155.1 326.01 160.66 319.35 166.9 312.96 173.25 306.47 179.68 300.2 185.94 294.14 191.53 287.93 196.61 281.88 201.14 275.96 204.79 269.83 207.99 263.78 210.9 257.78 213.27 251.52 215.7 245.27 218.38 239.02 221.07 232.49 224.34 225.93 228.27 219.36 232.62 212.54 237.76 205.73 243.68 198.98 250.11 192.08 257.26 185.32 265.02 178.77 273.2 172.23 281.85 166.04 290.82 160.29 300.07 154.76 309.51 149.82 319.02 145.56 328.68 141.71 338.33 138.67 347.89 136.51 357.52 134.86 367.01 134.14 376.3 134.36 385.63 135.06 394.72 136.65 403.53 139.07" stroke-dasharray="11 1" transform="rotate(12.12, 400, 400)" opacity="0.17"></path><path d="M393.34 149.86C401.56 152.53 409.29 155.77 416.52 159.47 423.72 163.16 430.42 167.14 436.61 171.3 442.81 175.22 448.56 179.19 453.92 183.14 459.39 186.71 464.62 190.22 469.72 193.64 475.18 196.64 480.77 199.58 486.69 202.47 493.28 205 500.5 207.55 508.5 210.18 517.44 212.55 527.31 215.08 538.13 217.82 549.72 220.43 561.99 223.33 574.64 226.55 587.25 229.75 599.45 233.34 610.69 237.31 620.54 241.34 628.46 245.79 633.93 250.64 637.02 255.6 637.31 260.95 634.81 266.69 630.45 272.53 624.25 278.72 616.97 285.24 610.14 291.84 604.15 298.73 599.97 305.86 598.84 313.06 600.81 320.47 606.1 328.05 614.72 335.66 625.76 343.42 638.17 351.3 650.91 359.18 662.34 367.15 671.05 375.19 676.27 383.24 676.94 391.16 673.13 398.94 665.64 406.72 654.98 414.39 642.38 421.94 629.27 429.52 616.68 437.01 605.69 444.43 597.27 451.93 591.68 459.4 588.99 466.87 589.36 474.48 591.93 482.14 595.97 489.89 601.28 497.82 606.52 505.89 610.92 514.11 614.46 522.55 616.1 531.16 615.57 539.93 613.21 548.91 608.58 558.01 601.94 567.19 593.74 576.48 584.08 585.73 573.41 594.86 562.01 603.89 550.23 612.61 538.41 620.88 526.62 628.77 515.15 636 504.16 642.39 493.55 648.11 483.48 652.8 473.95 656.34 464.81 659.01 456.1 660.42 447.74 660.54 439.65 659.81 431.74 657.85 423.96 654.73 416.29 651.06 408.63 646.5 400.91 641.22 393.22 635.92 385.42 630.3 377.52 624.6 369.61 619.49 361.79 614.79 354.08 610.64 346.4 607.48 338.88 605.01 331.59 603.23 324.38 602.48 317.47 602.33 310.92 602.67 301.51 604.48 285.16 609.29 278.29 611.39 271.93 613.01 260.6 612.52 255.06 610.02 250.89 607.64 246.51 604.41 241.81 600.36 236.41 595.86 230.57 590.61 224.3 584.69 217.41 578.4 210.23 571.53 202.93 564.18 195.49 556.57 188.33 548.59 181.72 540.31 175.65 531.89 170.56 523.26 166.65 514.5 163.69 505.67 162 496.77 161.54 487.85 161.75 478.92 162.79 469.99 164.38 461.13 165.76 452.26 167.05 443.47 167.98 434.77 167.9 426.08 167.16 417.49 165.76 409.02 163.44 400.56 160.92 392.4 158.55 384.56 156.23 376.71 154.74 369.16 154.33 361.89 154.82 354.6 156.68 347.58 159.88 340.83 164.01 334.01 169.2 327.43 175.17 321.07 181.41 314.62 187.9 308.35 194.38 302.24 200.35 295.99 205.93 289.86 211.03 283.82 215.29 277.59 219.06 271.42 222.43 265.28 225.14 258.91 227.73 252.54 230.35 246.17 232.76 239.57 235.52 232.95 238.75 226.35 242.17 219.56 246.24 212.8 250.98 206.15 256.11 199.39 261.93 192.82 268.36 186.48 275.19 180.21 282.54 174.31 290.31 168.86 298.37 163.65 306.73 159.03 315.28 155.08 324 151.53 332.8 148.76 341.6 146.82 350.48 145.38 359.29 144.8 367.94 145.11 376.63 145.88 385.11 147.47 393.33 149.86" stroke-dasharray="8 5" transform="rotate(16.16, 400, 400)" opacity="0.74"></path><path d="M384.52 160.65C392.2 163.26 399.5 166.41 406.43 170 413.35 173.61 419.92 177.5 426.15 181.58 432.44 185.46 438.49 189.41 444.36 193.37 450.42 196.98 456.46 200.55 462.62 204.06 469.17 207.18 476.05 210.24 483.4 213.26 491.36 215.92 499.97 218.59 509.3 221.31 519.31 223.77 530.02 226.34 541.32 229.08 552.96 231.65 564.81 234.47 576.54 237.55 587.75 240.57 598.1 243.92 607.11 247.6 617.25 253.33 623.19 266.73 618.78 274.39 613.84 279.69 607.7 285.33 601.09 291.29 595.36 297.31 590.78 303.62 588.14 310.2 588.4 316.82 591.49 323.68 597.49 330.74 606.31 337.82 617.1 345.08 628.9 352.49 640.83 359.92 651.45 367.47 659.56 375.15 664.55 382.83 665.45 390.44 662.28 397.98 655.75 405.52 646.2 413.01 634.66 420.44 622.35 427.9 610.15 435.33 599.03 442.74 589.92 450.22 583.14 457.72 578.9 465.26 577.45 472.92 578.21 480.65 580.66 488.48 584.68 496.47 589.15 504.58 593.4 512.81 597.41 521.22 600.13 529.75 601.21 538.39 600.91 547.16 598.64 555.99 594.49 564.82 588.85 573.67 581.63 582.41 573.13 590.94 563.69 599.31 553.5 607.3 542.87 614.79 531.94 621.88 520.97 628.29 510.18 633.86 499.49 638.8 489.14 642.76 479.2 645.63 469.5 647.72 460.21 648.67 451.29 648.44 442.59 647.47 434.18 645.41 426.02 642.31 417.97 638.76 410.09 634.41 402.33 629.43 394.61 624.45 386.96 619.18 379.38 613.81 371.8 608.97 364.45 604.48 357.37 600.46 350.29 597.32 343.49 594.77 337.02 592.82 327.54 591.55 310.57 592.46 303.16 594.01 296.18 596.18 283.82 599.47 278.09 599.95 271.95 599.51 258.31 594.54 250.32 589.92 244.24 586.21 237.78 581.8 230.99 576.73 223.76 571.34 216.42 565.36 209.14 558.89 201.92 552.17 195.16 545.05 189.09 537.59 183.68 529.97 179.29 522.1 176.09 514.04 173.79 505.91 172.69 497.64 172.7 489.31 173.25 480.94 174.5 472.54 176.18 464.15 177.57 455.75 178.8 447.39 179.64 439.08 179.49 430.78 178.69 422.54 177.25 414.4 174.91 406.25 172.37 398.38 169.93 390.79 167.49 383.18 165.8 375.83 165.09 368.74 165.2 361.62 166.61 354.73 169.32 348.07 172.96 341.35 177.7 334.82 183.31 328.48 189.33 322.04 195.74 315.74 202.3 309.58 208.54 303.28 214.53 297.07 220.14 290.93 225.01 284.62 229.41 278.34 233.36 272.1 236.61 265.65 239.59 259.21 242.44 252.78 244.9 246.15 247.5 239.54 250.36 232.97 253.21 226.25 256.52 219.61 260.35 213.1 264.41 206.55 269.07 200.2 274.3 194.13 279.83 188.15 285.91 182.56 292.43 177.43 299.23 172.56 306.39 168.27 313.83 164.64 321.44 161.39 329.24 158.89 337.12 157.17 345.1 155.92 353.09 155.49 361.02 155.89 368.98 156.71 376.83 158.3 384.51 160.65" stroke-dasharray="5 6" transform="rotate(20.200000000000003, 400, 400)" opacity="0.41"></path><path d="M378.89 171.44C386.1 173.98 393.1 177.04 399.89 180.52 406.69 184.03 413.31 187.82 419.8 191.81 426.37 195.63 432.89 199.54 439.44 203.48 446.2 207.12 453.13 210.74 460.32 214.32 467.88 217.53 475.85 220.71 484.31 223.85 493.24 226.64 502.73 229.44 512.76 232.27 523.15 234.82 533.95 237.47 544.96 240.24 555.9 242.84 566.63 245.62 576.81 248.62 586.16 251.52 594.34 254.7 600.98 258.17 607.57 263.51 607.92 275.84 602.2 282.86 597.15 287.69 591.45 292.85 585.77 298.32 581.28 303.82 578.15 309.62 576.96 315.7 578.48 321.8 582.52 328.15 589.06 334.72 597.96 341.31 608.42 348.11 619.58 355.1 630.7 362.09 640.55 369.26 648.08 376.58 652.83 383.91 653.91 391.23 651.33 398.53 645.7 405.83 637.23 413.13 626.76 420.42 615.33 427.74 603.67 435.08 592.65 442.43 583.11 449.86 575.43 457.33 569.89 464.86 566.81 472.49 565.82 480.21 566.58 488.01 569.09 495.94 572.43 503.98 576.02 512.11 579.89 520.36 583.04 528.69 585.09 537.06 586.26 545.51 585.85 553.94 583.82 562.3 580.53 570.62 575.68 578.76 569.48 586.62 562.27 594.27 554.07 601.51 545.15 608.21 535.7 614.5 525.9 620.1 515.97 624.89 505.9 629.09 495.92 632.37 486.16 634.63 476.48 636.21 467.08 636.75 458.01 636.22 449.07 635.07 440.43 632.94 432.09 629.9 423.84 626.47 415.84 622.35 408.08 617.66 400.35 612.99 392.82 608.06 385.49 603.02 378.16 598.46 371.18 594.18 364.56 590.29 357.93 587.18 351.66 584.57 345.76 582.48 337.09 580.84 321.59 580.66 314.71 581.64 308.01 583.28 295.38 585.99 289.08 586.48 282.12 586.29 266.41 582.5 257.38 578.75 250.73 575.72 243.82 572.04 236.72 567.75 229.38 563.17 222.09 558.02 215.05 552.39 208.26 546.52 202.06 540.23 196.67 533.57 191.99 526.76 188.36 519.66 185.88 512.33 184.23 504.91 183.67 497.32 184.1 489.6 184.93 481.85 186.34 474.01 188.06 466.14 189.42 458.25 190.57 450.35 191.3 442.47 191.07 434.58 190.21 426.72 188.73 418.92 186.39 411.1 183.84 403.52 181.36 396.17 178.83 388.81 176.96 381.67 175.99 374.74 175.73 367.78 176.69 361.02 178.89 354.44 182 347.8 186.23 341.32 191.39 334.98 197.06 328.56 203.27 322.25 209.76 316.04 216.13 309.7 222.4 303.43 228.41 297.22 233.84 290.86 238.85 284.52 243.43 278.21 247.32 271.74 250.87 265.28 254.16 258.85 256.96 252.26 259.72 245.71 262.56 239.23 265.2 232.66 268.12 226.19 271.4 219.88 274.73 213.57 278.53 207.5 282.81 201.72 287.27 196.08 292.23 190.82 297.64 186.04 303.25 181.52 309.26 177.57 315.61 174.25 322.11 171.3 328.87 169.06 335.81 167.57 342.84 166.5 349.99 166.2 357.19 166.68 364.43 167.55 371.67 169.14 378.88 171.44" stroke-dasharray="9 5" transform="rotate(24.24, 400, 400)" opacity="0.47"></path><path d="M377.62 182.23C384.45 184.7 391.23 187.66 397.98 191.02 404.75 194.42 411.52 198.1 418.32 201.98 425.22 205.73 432.23 209.58 439.41 213.49 446.79 217.13 454.43 220.78 462.4 224.4 470.65 227.71 479.31 230.98 488.37 234.22 497.71 237.14 507.43 240.07 517.44 243.01 527.53 245.68 537.69 248.42 547.71 251.26 557.36 253.9 566.45 256.69 574.68 259.66 590.24 269.01 591.72 285.46 585.41 291.96 580.65 296.41 575.7 301.16 571.15 306.21 567.98 311.27 566.26 316.63 566.43 322.25 569.04 327.89 573.87 333.79 580.79 339.93 589.65 346.07 599.71 352.45 610.2 359.03 620.53 365.62 629.62 372.42 636.6 379.41 641.1 386.4 642.34 393.43 640.3 400.47 635.51 407.53 628.07 414.63 618.66 421.75 608.18 428.9 597.19 436.1 586.46 443.35 576.76 450.65 568.45 458.02 561.87 465.46 557.39 472.97 554.8 480.57 553.91 488.25 554.79 496.02 556.74 503.86 559.29 511.76 562.52 519.74 565.51 527.74 567.91 535.74 569.9 543.74 570.74 551.68 570.31 559.48 568.93 567.19 566.17 574.66 562.12 581.81 557.14 588.72 551.07 595.18 544.11 601.09 536.52 606.59 528.34 611.42 519.77 615.48 510.89 618.99 501.87 621.64 492.84 623.36 483.74 624.49 474.76 624.67 465.99 623.9 457.24 622.6 448.73 620.44 440.5 617.48 432.31 614.2 424.38 610.31 416.73 605.91 409.1 601.56 401.72 596.95 394.6 592.23 387.48 587.94 380.76 583.87 374.44 580.13 368.1 577.07 362.14 574.43 356.55 572.23 348.29 570.25 333.29 569.08 326.4 569.5 319.46 570.62 305.7 572.63 298.51 573.02 293.27 573.13 287.84 572.76 282.17 571.87 276.04 570.81 269.63 569.17 262.98 566.94 255.98 564.48 248.84 561.42 241.67 557.81 234.46 553.95 227.47 549.56 220.89 544.69 214.69 539.61 209.2 534.11 204.58 528.23 200.69 522.2 197.84 515.85 196.07 509.25 195.03 502.55 194.96 495.63 195.74 488.56 196.8 481.44 198.3 474.19 200.01 466.86 201.3 459.51 202.35 452.1 202.96 444.66 202.65 437.22 201.72 429.76 200.22 422.31 197.89 414.85 195.35 407.57 192.85 400.48 190.26 393.37 188.25 386.44 187.02 379.68 186.43 372.89 186.96 366.25 188.64 359.76 191.2 353.21 194.86 346.79 199.49 340.47 204.72 334.08 210.58 327.78 216.86 321.55 223.19 315.21 229.57 308.92 235.85 302.68 241.71 296.31 247.25 289.97 252.43 283.65 256.99 277.21 261.19 270.79 265.07 264.42 268.42 257.94 271.6 251.52 274.71 245.19 277.49 238.82 280.39 232.58 283.47 226.52 286.46 220.51 289.77 214.75 293.45 209.31 297.17 204.01 301.31 199.12 305.86 194.69 310.51 190.53 315.57 186.92 320.99 183.92 326.5 181.27 332.33 179.28 338.43 178 344.58 177.12 350.95 176.94 357.5 177.5 364.07 178.4 370.78 179.99 377.61 182.23" stroke-dasharray="4 1" transform="rotate(28.28, 400, 400)" opacity="0.30"></path><path d="M380.96 193.02C387.49 195.41 394.11 198.26 400.84 201.5 407.59 204.78 414.49 208.34 421.54 212.11 428.67 215.76 436.01 219.54 443.6 223.39 451.33 227.02 459.35 230.67 467.68 234.32 476.17 237.68 484.97 241.03 494.02 244.36 503.16 247.4 512.46 250.43 521.79 253.48 530.95 256.28 539.9 259.12 548.42 262.04 556.35 264.76 563.51 267.6 569.63 270.57 579.14 279.74 575 295.43 568.79 301.52 562.65 307.88 555.34 321.97 556.52 329.69 560.07 334.93 565.5 340.43 572.65 346.18 581.36 351.92 590.95 357.91 600.76 364.13 610.31 370.34 618.67 376.79 625.11 383.45 629.37 390.12 630.74 396.85 629.18 403.64 625.17 410.44 618.71 417.3 610.35 424.21 600.85 431.16 590.63 438.17 580.38 445.24 570.75 452.35 562.09 459.54 554.77 466.8 549.16 474.11 545.17 481.5 542.75 488.94 542.01 496.43 542.45 503.98 543.71 511.54 545.9 519.13 548.25 526.7 550.42 534.22 552.61 541.7 554.07 549.06 554.63 556.23 554.61 563.27 553.47 570.03 551.21 576.44 548.19 582.59 544.11 588.27 539.11 593.41 533.47 598.16 527.11 602.25 520.19 605.62 512.88 608.5 505.21 610.59 497.33 611.84 489.28 612.56 481.16 612.45 473.09 611.49 464.97 610.09 456.96 607.93 449.12 605.06 441.3 601.95 433.67 598.3 426.27 594.19 418.89 590.14 411.73 585.85 404.82 581.44 397.91 577.41 391.38 573.56 385.23 569.97 379.05 566.98 373.22 564.33 367.71 562.05 359.5 559.79 344.19 557.73 336.89 557.63 329.38 558.23 313.99 559.45 305.81 559.66 299.96 559.74 293.9 559.42 287.62 558.68 281.01 557.84 274.22 556.5 267.28 554.65 260.18 552.64 253.08 550.09 246.11 547.05 239.28 543.8 232.81 540.07 226.88 535.88 221.43 531.52 216.75 526.73 212.96 521.57 209.88 516.28 207.79 510.66 206.68 504.75 206.2 498.75 206.55 492.51 207.6 486.07 208.82 479.59 210.36 472.93 212.02 466.16 213.21 459.36 214.13 452.46 214.61 445.48 214.2 438.5 213.22 431.46 211.7 424.37 209.39 417.29 206.88 410.33 204.39 403.5 201.76 396.67 199.63 389.96 198.2 383.38 197.3 376.78 197.41 370.28 198.6 363.9 200.59 357.47 203.66 351.13 207.7 344.87 212.38 338.54 217.77 332.28 223.7 326.07 229.82 319.77 236.14 313.52 242.51 307.3 248.63 300.98 254.57 294.7 260.23 288.44 265.4 282.1 270.23 275.8 274.76 269.55 278.76 263.24 282.52 257.02 286.12 250.91 289.33 244.79 292.51 238.83 295.74 233.08 298.76 227.39 301.96 221.98 305.39 216.9 310.6 209.73 322.67 197.98 329.6 193.65 336.93 190.43 353.24 187.74 362.13 188.33 368.15 189.27 374.43 190.84 380.95 193.02" stroke-dasharray="1 5" transform="rotate(32.32, 400, 400)" opacity="0.81"></path><path d="M388.24 203.81C394.51 206.11 400.98 208.86 407.64 211.96 414.31 215.11 421.21 218.54 428.32 222.18 435.48 225.73 442.9 229.41 450.55 233.19 458.27 236.77 466.24 240.41 474.43 244.05 482.65 247.45 491.04 250.85 499.51 254.24 507.9 257.38 516.22 260.52 524.33 263.66 532.12 266.57 539.46 269.52 546.17 272.53 560.18 281.22 566.14 295.11 562.87 300.28 558.18 305.58 547.92 317.35 544.48 323.84 543.94 328.24 544.78 332.89 547.21 337.8 551.5 342.7 557.37 347.86 564.61 353.25 573.07 358.65 582.14 364.29 591.26 370.16 600.04 376.03 607.7 382.14 613.63 388.48 617.64 394.83 619.1 401.26 617.98 407.77 614.68 414.28 609.14 420.88 601.8 427.54 593.3 434.23 583.95 440.99 574.31 447.82 564.96 454.68 556.22 461.61 548.44 468.59 541.99 475.61 536.87 482.69 533.11 489.79 530.87 496.92 529.79 504.06 529.65 511.18 530.55 518.3 531.9 525.35 533.39 532.31 535.22 539.19 536.71 545.91 537.66 552.4 538.32 561.75 534.57 578.29 530.05 585.15 526.23 589.18 521.63 592.6 516.39 595.34 510.76 597.65 504.63 599.24 498.13 600.07 491.41 600.46 484.46 600.1 477.38 599 470.21 597.54 462.99 595.41 455.82 592.66 448.63 589.72 441.51 586.31 434.53 582.49 427.55 578.73 420.72 574.75 414.04 570.65 407.37 566.88 401.01 563.25 394.95 559.82 388.86 556.91 383.04 554.27 377.45 551.94 369.08 549.46 352.98 546.61 345.05 546.03 336.84 546.12 319.79 546.52 310.75 546.47 304.41 546.45 297.91 546.12 291.27 545.44 284.43 544.71 277.52 543.57 270.6 542.01 263.67 540.33 256.89 538.19 250.39 535.6 244.15 532.87 238.4 529.69 233.26 526.08 226.76 520.27 218.94 506.59 217.75 498.85 217.74 493.52 218.43 487.92 219.68 482.1 220.99 476.24 222.51 470.17 224.07 463.95 225.14 457.7 225.91 451.31 226.25 444.81 225.75 438.3 224.72 431.69 223.18 424.99 220.92 418.29 218.45 411.67 215.98 405.14 213.35 398.6 211.14 392.14 209.53 385.76 208.36 379.37 208.09 373.05 208.79 366.81 210.23 360.53 212.69 354.31 216.09 348.14 220.15 341.93 224.98 335.76 230.42 329.63 236.17 323.43 242.25 317.27 248.52 311.14 254.7 304.94 260.84 298.78 266.83 292.66 272.46 286.48 277.84 280.36 282.96 274.31 287.61 268.24 292.02 262.27 296.22 256.43 300.01 250.62 303.69 244.99 307.32 239.59 312.37 231.76 322.75 217.96 328.36 212.21 334.14 207.31 347.17 200.64 354.49 199.02 362.11 198.48 378.98 200.92 388.23 203.81" stroke-dasharray="5 2" transform="rotate(36.36, 400, 400)" opacity="0.35"></path><path d="M397.94 214.6C403.98 216.81 410.25 219.44 416.73 222.4 423.22 225.42 429.94 228.7 436.86 232.19 450.79 238.95 465.52 246.18 480.7 253.6 495.64 260.2 510.36 266.85 523.88 273.51 535.75 279.32 544.91 285.33 550.26 291.61 552.68 297.33 551.03 303.62 545.94 310.55 540.6 317.22 535.34 324.74 532.58 333.13 535.36 341.43 543.5 350.69 556.65 360.88 564.77 365.96 573.27 371.28 581.69 376.84 589.73 382.39 596.71 388.18 602.14 394.2 605.91 400.22 607.44 406.34 606.7 412.54 604.04 418.75 599.37 425.05 593.01 431.41 577.22 444.19 559.36 457.28 542.75 470.53 529.96 483.83 521.61 497.24 517.39 510.47 517.38 523.55 518.97 536.17 520.4 547.9 521.99 558.96 521.15 568.6 517.47 576.31 512.28 582.72 504.39 586.75 494.43 588.09 483.56 587.97 471.49 585.31 458.86 580.27 452.47 577.52 446.04 574.34 439.6 570.81 433.16 567.34 426.74 563.66 420.37 559.86 414 556.35 407.82 552.93 401.83 549.67 395.82 546.86 389.97 544.26 384.26 541.91 372.68 538.7 361.37 536.37 350.12 534.7 338.26 534.5 326.05 534.25 313.4 533.54 300.13 533.28 286.61 531.9 273.35 529.17 260.6 526.19 249.27 521.61 240.27 515.47 233.42 508.93 229.72 500.92 229.25 491.67 230.25 482.15 232.93 471.6 236.15 460.24 237.06 454.54 237.67 448.65 237.87 442.62 237.28 436.59 236.2 430.41 234.67 424.12 232.45 417.82 230.05 411.56 227.62 405.34 225.01 399.12 222.75 392.93 221 386.8 218.7 374.5 219.92 362.32 224.76 350.34 232.15 338.21 242.28 326.16 254.05 314.27 266.08 302.22 278.1 290.32 289.52 278.78 299.55 267.24 308.75 256.24 317.37 246.11 324.79 236.41 332.29 227.95 340.25 221.11 347.72 215.22 356.15 211.29 365.7 209.6 372.95 209.26 389.04 211.8 397.93 214.6" stroke-dasharray="2 7" transform="rotate(40.400000000000006, 400, 400)" opacity="0.96"></path><path d="M408.07 225.39C419.67 229.74 432.06 235.47 445.03 242.16 457.99 248.67 471.36 255.7 484.66 262.97 497.46 269.56 509.42 276.27 519.69 283.01 528.3 289 534.12 295.16 536.51 301.55 536.83 307.4 534.11 313.71 529.25 320.55 525.17 327.1 522.03 334.38 521.69 342.42 526.38 350.33 535.6 359.12 548.72 368.76 564.48 378.36 579.58 388.86 590.66 400.26 596.07 411.65 593.5 423.44 583.97 435.48 570.1 447.55 553.68 459.88 537.51 472.29 523.92 484.69 513.71 497.08 507.08 509.17 504.36 521.04 503.73 532.33 503.81 542.64 504.9 552.28 504.62 560.5 502.33 566.9 499.22 572.14 493.74 575.22 486.2 575.91 477.89 575.41 468.07 572.69 457.22 567.91 446.16 562.73 434.49 556.29 422.49 549.07 410.49 542.86 398.72 537.04 387.19 531.93 375.5 528.52 363.77 525.81 351.9 523.66 339.64 522.85 327.03 522.04 314.19 520.92 301.16 520.33 288.26 518.85 276.07 516.28 264.79 513.63 255.22 509.61 248.09 504.23 242.98 498.57 240.7 491.56 241.18 483.35 242.63 474.94 245.32 465.47 248.23 455.14 249.12 444.73 248.5 433.58 246.15 421.82 241.34 410.05 236.43 398.26 232.63 386.55 229.86 374.82 230.17 363.12 233.79 351.54 239.79 339.87 248.6 328.26 259.33 316.81 270.79 305.29 282.74 293.97 294.51 283.05 305.39 272.24 315.63 262.02 325.27 252.69 333.84 243.84 342.24 236.21 350.77 230.13 358.74 224.93 367.33 221.56 376.78 220.23 386.06 219.92 396.45 221.64 408.06 225.39" stroke-dasharray="4 11" transform="rotate(44.44, 400, 400)" opacity="0.85"></path><path d="M416.53 236.18C427.58 240.32 439.07 245.74 450.77 252.08 462.37 258.31 473.92 265.09 484.91 272.16 495.28 278.68 504.4 285.36 511.58 292.12 517.34 298.24 520.53 304.52 520.9 310.99 520.06 316.96 517.21 323.31 513.3 330.09 510.87 336.58 509.92 343.68 511.78 351.43 518.03 359.04 527.97 367.42 540.81 376.56 555.46 385.65 569.16 395.57 579.18 406.3 584.33 417.03 582.58 428.11 574.65 439.37 562.69 450.66 547.89 462.12 532.57 473.57 518.76 484.97 507.31 496.24 498.73 507.11 493.54 517.71 490.55 527.64 488.8 536.56 488.24 548.28 481.94 562.27 474.2 563.56 467.93 562.78 460.04 560.06 450.85 555.56 441.47 550.8 431.11 544.91 419.97 538.28 408.83 532.52 397.49 527.01 386.04 522.02 374.52 518.46 362.74 515.45 350.74 512.9 338.59 511.54 326.2 510.22 313.82 508.68 301.65 507.71 289.95 506.05 279.3 503.52 269.8 501.03 262.14 497.4 256.87 492.59 253.35 487.61 252.29 481.43 253.49 474.12 255.21 466.67 257.77 458.18 260.3 448.81 260.86 439.37 260.01 429.14 257.64 418.21 253.01 407.29 248.26 396.22 244.4 385.15 241.27 374.07 240.78 362.95 243.23 351.89 247.84 340.8 255.2 329.76 264.63 318.9 275.11 308.03 286.51 297.41 298.14 287.23 309.38 277.23 320.27 267.86 330.68 259.39 340.26 251.41 349.56 244.61 358.77 239.28 367.44 234.75 376.44 231.9 385.97 230.92 395.32 230.83 405.47 232.58 416.53 236.18" stroke-dasharray="4 0" transform="rotate(48.48, 400, 400)" opacity="0.90"></path><path d="M421.57 246.97C431.95 250.88 442.35 255.99 452.53 261.96 462.58 267.88 472.12 274.36 480.73 281.17 488.74 287.56 495.29 294.15 499.91 300.86 503.5 307.03 504.94 313.37 504.26 319.88 503.17 325.94 500.95 332.31 498.5 339.04 497.92 345.49 499.06 352.44 502.82 359.94 510.25 367.29 520.55 375.3 532.88 383.96 546.36 392.58 558.7 401.92 567.69 411.96 572.57 422.01 571.52 432.32 565.07 442.75 554.95 453.18 541.88 463.7 527.74 474.1 514.24 484.43 502.18 494.52 492.24 504.12 484.99 513.44 479.8 522.04 476.07 529.62 473.15 539.46 466.24 550.53 459.86 551.07 454.89 550.08 448.43 547.43 440.61 543.25 432.65 538.9 423.51 533.54 413.32 527.49 403.13 522.18 392.46 516.99 381.45 512.16 370.45 508.53 359.1 505.3 347.55 502.42 336.06 500.6 324.51 498.8 313.22 496.86 302.42 495.5 292.36 493.6 283.58 491 273.12 486.85 264.52 473.54 266.14 464.24 267.94 457.59 270.24 449.98 272.35 441.49 272.56 432.95 271.51 423.6 269.12 413.53 264.7 403.46 260.15 393.17 256.31 382.8 252.92 372.44 251.77 361.99 253.15 351.59 256.4 341.19 262.25 330.84 270.2 320.69 279.39 310.59 289.8 300.77 300.8 291.43 311.85 282.31 322.86 273.84 333.6 266.26 343.84 259.17 353.79 253.19 363.52 248.58 372.84 244.69 382.24 242.33 391.84 241.67 401.29 241.77 411.19 243.53 421.57 246.97" stroke-dasharray="5 4" transform="rotate(52.52, 400, 400)" opacity="0.55"></path><path d="M422.17 257.76C431.76 261.43 440.96 266.2 449.58 271.79 458.05 277.36 465.69 283.5 472.18 290.01 478.2 296.19 482.73 302.62 485.56 309.2 487.79 315.34 488.39 321.67 487.57 328.14 486.95 334.24 485.9 340.6 485.19 347.25 486.47 353.65 489.47 360.46 494.75 367.7 502.94 374.81 513.27 382.47 524.91 390.66 537.17 398.82 548.18 407.57 556.21 416.92 560.79 426.26 560.34 435.77 555.21 445.31 546.84 454.83 535.56 464.34 522.85 473.65 510.12 482.87 498.04 491.76 487.36 500.1 478.65 508.17 471.65 515.49 466.07 521.82 460.48 529.94 451.07 538.5 444.96 538.46 440.57 537.35 434.96 534.81 428.12 530.96 421.21 527.03 413.12 522.19 403.92 516.7 394.72 511.84 384.92 506.98 374.73 502.35 364.6 498.72 354.14 495.34 343.6 492.23 333.27 490.01 323.07 487.82 313.37 485.52 304.28 483.77 296.12 481.6 289.33 478.89 281.64 474.74 276.85 462.4 279.04 453.99 280.75 448.02 282.71 441.16 284.35 433.48 284.23 425.77 282.99 417.26 280.6 408.04 276.42 398.82 272.11 389.34 268.36 379.75 264.83 370.17 263.14 360.49 263.59 350.85 265.59 341.24 269.95 331.69 276.33 322.36 284 313.12 293.06 304.19 302.99 295.76 313.3 287.57 323.88 280.02 334.42 273.35 344.78 267.13 354.95 261.96 364.87 258.04 374.54 254.76 384.11 252.86 393.62 252.48 403.04 252.74 412.57 254.5 422.17 257.76" stroke-dasharray="2 7" transform="rotate(56.56, 400, 400)" opacity="0.54"></path><path d="M418.18 268.55C426.9 271.97 434.91 276.39 442.09 281.58 449.16 286.78 455.21 292.54 460.07 298.68 464.64 304.59 467.88 310.78 469.74 317.15 471.42 323.18 471.97 329.4 471.73 335.77 472.09 341.83 472.51 348.12 473.6 354.63 476.56 360.93 481.09 367.57 487.45 374.54 496.03 381.41 506.09 388.7 516.87 396.41 527.89 404.09 537.62 412.25 544.73 420.87 548.99 429.48 549.02 438.15 545.09 446.76 538.34 455.35 528.84 463.83 517.72 472.03 506.14 480.13 494.57 487.84 483.77 494.97 474.24 501.85 465.98 507.98 458.94 513.17 450.84 519.77 438.01 526.21 431.37 525.75 426.94 524.59 421.66 522.21 415.43 518.71 409.19 515.18 401.94 510.86 393.72 505.91 385.49 501.48 376.73 496.99 367.65 492.6 358.65 489.01 349.47 485.58 340.35 482.31 331.52 479.79 323.01 477.27 315.17 474.67 304.83 471.35 291.62 463.05 289.5 457.53 289.73 451.37 294.36 435.16 296.28 425.12 295.84 418.15 294.44 410.45 292.09 402.07 288.17 393.69 284.13 385.05 280.53 376.3 276.97 367.56 274.89 358.72 274.58 349.93 275.48 341.18 278.44 332.52 283.26 324.09 289.29 315.79 296.79 307.8 305.3 300.32 314.41 293.09 324.04 286.49 333.86 280.71 343.75 275.34 353.6 270.94 363.25 267.69 372.82 264.97 382.21 263.48 391.37 263.35 400.5 263.75 409.47 265.48 418.18 268.55" stroke-dasharray="3 6" transform="rotate(60.599999999999994, 400, 400)" opacity="0.54"></path><path d="M410.45 279.34C418.23 282.5 425.16 286.56 431.17 291.32 437.1 296.12 442.02 301.47 445.85 307.2 449.57 312.77 452.22 318.64 453.88 324.71 455.65 330.54 456.77 336.57 457.57 342.73 459.16 348.66 461.1 354.8 463.82 361.11 468.16 367.25 473.8 373.66 480.81 380.32 489.42 386.89 498.95 393.79 508.75 401 518.51 408.18 527.01 415.72 533.25 423.58 537.17 431.44 537.59 439.26 534.69 446.93 529.42 454.58 521.65 462.02 512.2 469.14 502.02 476.15 491.42 482.73 481.05 488.72 471.38 494.49 462.5 499.54 454.53 503.72 447.61 507.57 441.41 510.43 435.72 512.2 428.26 513.72 413.19 510.74 404.61 506.5 398.72 503.38 392.12 499.54 384.8 495.12 377.49 491.13 369.83 487 362.04 482.88 354.33 479.41 346.63 475.99 339.16 472.65 331.98 469.93 325.27 467.17 319.32 464.34 307.34 456.28 303.02 440.72 305.26 433.61 306.39 428.66 307.45 423.03 308.13 416.76 307.39 410.47 305.86 403.53 303.57 395.98 299.93 388.43 296.2 380.65 292.81 372.76 289.32 364.9 287 356.96 286.11 349.08 286.09 341.26 287.83 333.54 291.19 326.08 295.6 318.74 301.43 311.74 308.34 305.23 315.91 298.96 324.18 293.28 332.82 288.38 341.72 283.83 350.73 280.16 359.65 277.51 368.62 275.31 377.42 274.2 385.92 274.28 394.44 274.79 402.66 276.47 410.45 279.34" stroke-dasharray="5 7" transform="rotate(64.64, 400, 400)" opacity="0.92"></path><path d="M400.55 290.13C407.39 293.02 413.4 296.71 418.55 301.03 423.67 305.41 427.9 310.3 431.28 315.57 434.67 320.74 437.31 326.23 439.33 331.92 441.64 337.45 443.67 343.18 445.68 349.05 448.5 354.75 451.81 360.63 455.84 366.66 461.15 372.55 467.46 378.66 474.7 384.94 482.99 391.15 491.77 397.6 500.5 404.27 509.02 410.91 516.36 417.8 521.77 424.89 525.34 431.98 526.05 438.93 524.03 445.66 520.08 452.37 513.93 458.82 506.17 464.89 497.56 470.87 488.25 476.4 478.78 481.35 469.55 486.12 460.69 490.22 452.41 493.53 444.81 496.59 437.78 498.79 431.27 500.05 422.46 501.06 405.87 498.09 397.34 494.34 391.62 491.6 385.52 488.24 379.03 484.33 372.54 480.77 365.98 477.02 359.49 473.21 353.08 469.9 346.87 466.57 341.05 463.25 332.95 458.97 320.84 450.52 317.44 446.03 315.6 441.55 316.55 430.68 318.38 424.07 319.37 416.95 318.07 399.97 315.05 390.13 311.72 383.39 308.33 376.47 305.2 369.48 301.88 362.52 299.47 355.51 298.17 348.58 297.46 341.71 298.17 334.97 300.26 328.5 303.18 322.14 307.39 316.13 312.64 310.58 318.53 305.25 325.2 300.47 332.37 296.4 339.87 292.62 347.63 289.63 355.43 287.54 363.36 285.81 371.2 285.03 378.78 285.27 386.4 285.87 393.71 287.48 400.55 290.13" stroke-dasharray="5 7" transform="rotate(68.68, 400, 400)" opacity="0.74"></path><path d="M390.54 300.91C402.42 306.29 411.57 314.27 418.17 323.81 425.15 333.17 430.8 343.69 436.43 354.75 444.85 365.34 455.65 376.65 468.95 388.36 484.72 399.87 499.9 412.11 510.28 424.71 515.07 437.31 510.73 449.06 499.5 459.32 484.92 469.31 468.13 477.35 451.92 482.7 437.09 487.34 423.68 488.98 411.6 487.34 400.37 485.29 389.08 480.56 377.58 473.54 366.08 467.58 355.42 460.88 346.52 454.08 338.19 448.77 332.5 442.95 330.13 436.52 328.34 430.86 329.09 423.83 331.35 415.32 331.11 406.95 329.67 396.74 326.54 384.86 319.76 372.99 313.92 360.64 310.71 348.66 308.88 336.9 311.75 325.85 318.65 316.46 327.65 307.76 339.38 301.25 352.09 297.77 365.42 295.41 378.66 296.34 390.54 300.91" stroke-dasharray="3 5" transform="rotate(72.72, 400, 400)" opacity="0.08"></path><path d="M382.48 311.7C392.67 316.47 401.12 323.5 408.02 331.94 415.43 340.33 422.43 349.84 429.87 359.87 439.43 369.63 450.75 380.01 463.41 390.62 477.32 401.11 490.13 412.06 498.8 423.06 503.25 434.06 500.52 444.04 492.1 452.5 480.7 460.77 466.65 467.21 452.26 471.32 438.27 474.95 425.06 476.09 413.12 474.53 401.74 472.77 390.9 468.76 380.76 462.76 370.61 457.54 362.02 451.48 355.43 445.14 349.11 439.9 345.19 434.11 343.87 427.81 342.48 422.14 342.82 415.4 344.07 407.58 343.04 399.9 341.09 390.82 338.02 380.5 332.05 370.17 326.88 359.64 323.7 349.56 321.15 339.67 322.22 330.55 326.63 322.94 332.57 315.89 341.12 310.76 351.01 308.21 361.45 306.51 372.3 307.57 382.48 311.7" stroke-dasharray="10 5" transform="rotate(76.76, 400, 400)" opacity="0.59"></path><path d="M378.04 322.49C386.67 326.62 394.57 332.68 401.8 339.98 409.5 347.29 417.38 355.65 425.81 364.49 435.61 373.2 446.55 382.43 457.93 391.8 469.74 401.1 480.25 410.66 487.31 420.05 491.34 429.43 489.88 437.73 483.92 444.59 475.53 451.31 464.49 456.4 452.57 459.52 440.43 462.35 428.47 463.14 417.47 461.76 406.75 460.31 396.76 457 387.91 451.97 379.06 447.5 372.06 442.16 367.04 436.41 362.05 431.44 359.08 425.89 358.04 419.91 356.56 414.41 356.22 408.09 356.43 401.01 354.73 394.06 352.44 386.09 349.51 377.29 344.36 368.48 339.95 359.7 337.03 351.46 334.24 343.36 334.13 336.03 336.65 330.07 340.12 324.52 345.9 320.62 353.18 318.86 360.88 317.71 369.4 318.83 378.04 322.49" stroke-dasharray="7 5" transform="rotate(80.80000000000001, 400, 400)" opacity="0.76"></path><path d="M378.13 333.28C385.32 336.76 392.58 341.82 399.79 347.93 407.32 354.09 415.33 361.17 423.77 368.69 432.95 376.16 442.72 384.08 452.35 392.05 461.94 400 470.24 408.06 475.83 415.84 479.35 423.61 478.83 430.33 474.91 435.76 469.21 441.11 461.16 445.07 452 447.41 442.36 449.62 432.45 450.19 423.09 449.05 413.78 447.92 405.1 445.28 397.55 441.18 390 437.46 384.2 432.89 380.11 427.87 374.59 420.8 369.6 404.81 368.32 395.71 366.16 389.56 363.69 382.75 360.99 375.43 356.7 368.12 353.09 361.01 350.63 354.49 349.87 338.75 367.69 329.58 378.13 333.28" stroke-dasharray="1 4" transform="rotate(84.84, 400, 400)" opacity="0.54"></path><path d="M382.73 344.07C394.38 349.86 408.41 360.41 423.1 372.57 438.92 384.72 454.86 398.34 464.35 410.69 468.72 423.03 462.16 431.59 449.84 435.16 435.65 438.5 420.07 436.99 407.7 430.39 395.32 424.77 388.04 416.11 385.02 406.47 380.06 397.63 376.02 386.73 372.47 375.04 362.79 358.19 367.36 339.82 382.73 344.07" stroke-dasharray="0 8" transform="rotate(88.88, 400, 400)" opacity="0.15"></path><path d="M390.9 354.86C399.81 359.22 411.28 367.11 423 376.24 434.91 385.43 446.28 395.72 452.86 404.9 456.62 414.08 453.23 420.31 445.56 422.88 436.58 425.4 425.72 424.41 416.26 419.6 406.79 415.33 400.32 408.51 396.54 400.83 391.48 393.57 387.16 384.91 383.96 376.12 376.95 363.69 379.51 351.32 390.9 354.86" stroke-dasharray="0 4" transform="rotate(92.92, 400, 400)" opacity="0.34"></path><path d="M400.94 365.65C413.12 371.64 432.34 386.68 441.38 398.82 445.54 410.95 434.23 415.21 421.46 408.81 408.68 403.36 399.19 390.39 395.44 378.63 387.31 366.86 388.75 360.55 400.94 365.65" stroke-dasharray="1 8" transform="rotate(96.96, 400, 400)" opacity="0.57"></path></g></svg>