<svg xmlns="http://www.w3.org/2000/svg" version="1.1" xmlns:xlink="http://www.w3.org/1999/xlink" viewBox="0 0 1422 800" style="overflow: hidden; display: block;" width="1422" height="800"><defs></defs><g id="two-0" transform="matrix(1 0 0 1 0 0)" opacity="1"></g><path d="M 778.4837646484375 256.01538601313155 Q 778.4837646484375 256.01538601313155 761.4943992614747 255.15560957054225 744.5050338745117 254.29583312795296 726.943187007904 253.67249520707574 709.3813401412964 253.04915728619852 693.7922057967186 252.74051513433366 678.2030714521408 252.4318729824688 666.4070060671211 252.63186819964278 654.6109406821013 252.83186341681673 645.534938180333 253.16121645966533 636.4589356785649 253.49056950251392 625.2162613545827 254.80796048104241 613.9735870306004 256.1253514595709 602.9304088035587 263.1910574649649 591.8872305765173 270.2567634703589 581.9992326394579 278.040032079207 572.1112347023986 285.823300688055 562.444946738535 294.73636337584867 552.7786587746713 303.64942606364235 545.2359878125584 312.1129648872223 537.6933168504455 320.5765037108022 532.4541859786516 327.24534094440685 527.2150551068577 333.91417817801147 522.4846966502657 343.49252658514456 517.7543381936739 353.07087499227765 515.2808357709248 366.5450092740129 512.8073333481756 380.01914355574814 511.5796211003368 397.16860699777817 510.351908852498 414.3180704398082 510.14553037630844 424.09296094599745 509.9391519001189 433.86785145218664 510.45559920164885 447.9595199399291 510.9720465031789 462.05118842767155 519.8897737272194 471.7861732203277 528.80750095126 481.5211580129839 544.3017147837134 488.62451747214755 559.7959286161667 495.7278769313112 568.9687250863994 499.17228554933 578.1415215566321 502.6166941673488 589.0755905932753 506.09708236962615 600.0096596299184 509.5774705719036 611.7521422148079 511.9011584022794 623.4946247996976 514.2248462326552 636.2394153446141 515.4378023333304 648.9842058895308 516.6507584340055 664.0172309000714 517.5966008736996 679.0502559106119 518.5424433133935 696.4202958877211 518.9525021722347 713.7903358648302 519.3625610310761 732.6274844237188 517.901684870986 751.4646329826073 516.4408087108958 771.4766573373281 513.045030411691 791.4886816920489 509.64925211248624 812.0057976869051 504.2989112848254 832.5229136817613 498.94857045716464 852.6182096430457 492.351641552562 872.71350560433 485.7547126479594 891.3371109072712 477.5765238227287 909.9607162102122 469.39833499749795 926.9055223655562 459.808638323638 943.8503285209 450.21894164977806 957.438883954545 440.09313041871167 971.0274393881898 429.96731918764533 980.9018827188307 420.46162371315836 990.7763260494717 410.9559282386714 998.289840107441 401.8096464475067 1005.8033541654103 392.66336465634197 1010.3391892775102 384.9460794425123 1014.8750243896101 377.22879422868266 1019.1376706922335 364.6662741114634 1023.400316994857 352.1037539942442 1023.7295581182873 340.7607551512964 1024.0587992417175 329.4177563083486 1018.4257645163428 317.8790821988009 1012.7927297909682 306.3404080892532 995.9984753494488 293.2331358885775 979.2042209079293 280.1258636879019 965.2596113539718 271.62547429192813 951.3150018000142 263.12508489595433 935.0636848891529 255.71589344793227 918.8123679782915 248.3067019999102 900.018368451446 242.1050240986886 881.2243689246005 235.903346197467 861.6316492405863 231.32938582795174 842.0389295565719 226.7554254584365 822.8557118165228 224.00698476592274 803.6724940764736 221.25854407340898 785.9798859172695 219.65200317025784 768.2872777580652 218.04546226710673 752.7301877339424 217.41917431696385 737.1730977098197 216.79288636682097 723.6797579273552 217.12654579250352 710.1864181448907 217.46020521818605 699.2982607043531 218.94994985124254 688.4101032638155 220.43969448429905 679.5695200956958 222.3839090104207 670.7289369275761 224.32812353654234 656.3861725554475 229.62392443654156 642.043408183319 234.91972533654078 630.5875922543491 240.55683623357058 619.1317763253794 246.19394713060038 610.0886642290793 251.57044309757805 601.0455521327791 256.94693906455575 594.136153516678 261.97955696329177 587.2267549005769 267.01217486202773 584.8601064118781 269.29590678865213 582.4934579231792 271.57963871527653 580.3057441379583 272.8965994855312 578.1180303527374 274.2135602557859 575.624323173301 274.7630161499791 573.1306159938648 275.31247204417224 570.592007220175 275.0368948851396 568.0533984464851 274.76131772610694 565.7356810872745 273.6895605151444 563.4179637280641 272.61780330418196 561.5638034026604 270.8620793041939 559.7096430772566 269.10635530420586 558.51317086118 266.85048928145704 557.3166986451035 264.5946232587082 556.9031854952154 262.0748049812713 556.4896723453273 259.5549867038344 556.9024131975779 257.0350418105244 557.3151540498284 254.5150969172144 558.5109348280339 252.25886430356175 559.7067156062394 250.0026316899091 561.5603377472662 248.24633950615078 563.4139598882931 246.49004732239248 565.7313486646672 245.41757982378414 568.0487374410412 244.3451123251758 570.5872616361448 244.0687571419256 573.1257858312483 243.7924019586754 575.6196612917488 244.34109355142039 578.1135367522494 244.88978514416533 580.3016540591132 246.20607535830453 582.489771365977 247.5223655724437 584.1430340595687 249.4684384750899 585.7962967531603 251.4145113777361 586.7416077930417 253.78661262226882 587.6869188329231 256.1587138668016 587.8253039036808 258.70848382674444 587.9636889744386 261.2582537866873 587.2806591226342 263.7187308741603 586.5976292708299 266.1792079616333 585.1646979022497 268.2927795760752 583.7317665336695 270.4063511905171 581.698961940861 271.95172582596706 579.6661573480525 273.49710046141706 577.2463147084909 274.31247698560423 574.8264720689294 275.12785350979135 572.2729495457534 275.12786178539477 569.7194270225774 275.12787006099825 567.299579098028 274.31250922156016 564.8797311734785 273.497148382122 562.8469165640338 271.9517869227659 560.814101954589 270.40642546340973 559.3811568864687 268.2928631368659 557.9482118183483 266.1793008103221 557.2651660184455 263.7188281501061 556.5821202185426 261.25835548989005 556.7204887624137 258.70858463302807 556.8588573062846 256.1588137761661 557.8041529708603 253.7867064044458 558.7494486354361 251.4145990327255 560.4026987151019 249.4685154141415 562.0559487947676 247.52243179555754 562.0541445042351 247.52396460875366 562.0523402137026 247.52549742194978 565.7336441813411 244.66970237258482 569.4149481489796 241.8139073232199 578.2189007603736 236.56173708530855 587.0228533717674 231.30956684739718 597.3948102046538 226.36653540191742 607.7667670375404 221.42350395643766 620.4753565748856 216.548759270435 633.1839461122307 211.67401458443234 641.1776059686472 209.02851708782526 649.1712658250636 206.38301959121821 658.0725833836293 204.4857086694571 666.9739009421951 202.588397747696 676.6593507045915 201.33780340106892 686.3448004669879 200.08720905444184 698.1907593140157 199.27387305343427 710.0367181610436 198.46053705242673 723.9647918458747 198.5893205793119 737.892865530706 198.7181041061971 753.8338853193376 199.34779412223418 769.7749051079692 199.97748413827125 787.9585580316248 201.32618550848474 806.1422109552802 202.6748868786982 826.184631080232 205.14191851310395 846.2270512051837 207.6089501475097 866.7886177373018 211.83059091744886 887.3501842694201 216.05223168738803 907.419448093493 221.85587071212308 927.4887119175659 227.6595097368581 945.3249598822567 234.5937909400414 963.1612078469477 241.52807214322468 979.0193811975527 249.3965791838531 994.8775545481576 257.26508622448154 1007.5084932389664 265.4197277678022 1020.1394319297751 273.57436931112295 1028.5174662788625 281.3603117685991 1036.8955006279498 289.14625422607526 1043.9069086984782 304.0824059318722 1050.9183167690069 319.0185576376691 1050.201260777811 331.5134713360644 1049.484204786615 344.00838503445976 1045.4075176881483 359.0924925999723 1041.3308305896817 374.1766001654848 1036.9636061093142 381.5584019662357 1032.596381628947 388.94020376698654 1026.5491315086556 397.21918796360035 1020.5018813883643 405.49817216021415 1011.8042542400633 414.8716608080295 1003.1066270917624 424.24514945584485 992.2175978058576 433.9827984741556 981.3285685199528 443.7204474924663 966.9183611219278 454.5404666511629 952.5081537239026 465.36048580985954 934.8583007808318 475.50839327000074 917.2084478377608 485.6563007301419 897.8839517407096 494.37278944274925 878.5594556436582 503.0892781553566 858.0303557327175 510.17386554785014 837.5012558217768 517.2584529403437 816.3108879054236 523.2434070218658 795.1205199890703 529.2283611033879 774.3526957969655 533.3853544166677 753.5848716048606 537.5423477299477 733.8249256395087 539.9483876571377 714.0649796741568 542.3544275843277 696.2356541748823 543.1728767197656 678.4063286756077 543.9913258552035 662.7586495608796 544.1600889767335 647.1109704461514 544.3288520982634 632.8549630262814 543.7133862738467 618.5989556064113 543.0979204494299 605.0471699159298 541.1194390442952 591.4953842254481 539.1409576391604 579.4123861918245 535.9746725081136 567.3293881582008 532.8083873770669 557.1052404247268 529.3037178567033 546.8810926912529 525.7990483363396 537.6098158458466 521.9469543472605 528.3385390004403 518.0948603581814 519.3878116572474 513.7932609977283 510.4370843140546 509.4916616372752 498.3707063829608 498.8304101634499 486.30432845186704 488.1691586896247 483.0311650544345 475.90937724712603 479.758001657002 463.6495958046274 479.7543043973923 448.4857134361524 479.7506071377826 433.3218310676775 479.90504925731494 423.1478895773089 480.0594913768473 412.9739480869403 480.5284025383199 402.8722297253521 480.99731369979247 392.77051136376394 482.14730260275087 383.689561679481 483.29729150570927 374.60861199519803 487.279960412818 358.28660133840833 491.2626293199268 341.96459068161863 498.9656111187927 329.4078599718843 506.6685929176586 316.85112926215 512.5676794824861 310.11424666380043 518.4667660473136 303.3773640654509 526.7034320971499 294.2023852208987 534.9400981469861 285.0274063763465 545.0211903537013 275.0326215982227 555.1022825604166 265.0378368200989 565.6080836977433 256.1407576173673 576.1138848350698 247.24367841463564 593.2582205889241 238.54896297704408 610.4025563427783 229.85424753945253 623.4307460106716 229.69430544913337 636.4589356785649 229.5343633588142 645.534938180333 229.8637164016628 654.6109406821013 230.1930694445114 666.4070060671211 230.39306466168534 678.2030714521408 230.59305987885932 693.7922057967186 230.28441772699446 709.3813401412964 229.9757755751296 726.943187007904 229.35243765425238 744.5050338745117 228.72909973337516 761.4943992614747 227.86932329078587 778.4837646484375 227.0095468481966 780.2192067249609 227.22027444008404 781.9546488014844 227.4310020319715 783.5892269029808 228.0509373100923 785.2238050044773 228.67087258821314 786.6625173748876 229.66398488507545 788.1012297452978 230.65709718193776 789.260458354056 231.96566676418672 790.4196869628141 233.27423634643569 791.232057388713 234.82220908846813 792.0444278146119 236.37018183050054 792.4627250503293 238.06758948381832 792.8810222860467 239.7649971371361 792.880934876589 241.51318628917608 792.8808474671313 243.26137544121602 792.4623804927403 244.95874125632326 792.0439135183494 246.6561070714305 791.2313882992385 248.20399856868062 790.4188630801274 249.75189006593072 789.2595036202074 251.06034371877615 788.1001441602874 252.36879737162158 786.6613324858412 253.36176579228152 785.2225208113949 254.35473421294148 783.5878807245437 254.97450603015275 781.9532406376924 255.59427784736403 780.217777497087 255.80483189399047 778.4823143564817 256.0153859406169 778.4830395024596 256.0153859768742 Z" fill="hsl(28, 100%, 71%)"></path></svg>