<svg xmlns="http://www.w3.org/2000/svg" version="1.1" xmlns:xlink="http://www.w3.org/1999/xlink" xmlns:svgjs="http://svgjs.dev/svgjs" viewBox="0 0 600 600" opacity="1"><path d="M635.6307280050512 135.9643135227821C655.2642373230851 136.4878737288775 691.7825936463273 134.00096259097873 702.3846952902074 138.32033445021128C712.9867969340878 142.63970630944388 709.4527596619523 153.89625153522306 699.2433378683324 161.88054467817756C689.0339160747128 169.86483782113208 665.7354999370175 184.0009622730868 641.1281645284887 186.2260933079358C616.5208291199601 188.45122434278676 577.5155597514704 180.0742626347196 551.5993254171606 175.231330887284C525.6830910828508 170.38839913984748 509.3218545105831 159.65541396121793 485.6307585226342 157.16850282331916C461.93966253467795 154.68159168542041 432.35850866504927 155.72871209761115 409.45274948943086 160.30986405989142C386.54699031381233 164.8910160221717 366.52081131804414 173.92243005415412 348.19620346892304 184.65541459699983C329.87159561980195 195.38839913984464 317.3061506735129 222.7444210209482 299.5051023947043 224.70777131696875C281.7040541158957 226.67112161298928 263.7721134013775 200.49310812930588 241.3899137960717 196.435516373121C219.00771419076577 192.37792461693624 181.04960083830807 192.50881705264584 165.2119047628686 200.36222077985929C149.37420868742916 208.21562450707285 150.15954899657223 229.1580340224537 146.36373734343502 243.5559387364025C142.5679256902978 257.9538434503508 141.38991443185463 272.6135228631925 142.43703484404537 286.74964906355063C143.4841552562361 300.8857752639107 149.63598879047686 313.32033794701664 152.64645981657955 328.37269593855314C155.65693084268224 343.42505393008975 159.45274058847082 358.7391917067825 160.49986100066158 377.0637970127747C161.54698141285235 395.38840231876515 163.24855383106524 425.49310304304896 158.92918228972408 438.3203277744943C154.60981074838293 451.1475525059396 140.60457428165725 450.88578289330945 134.5836317526147 454.0271454014474C128.56268922357216 457.16850790958546 125.81399830051714 466.069025691161 122.80352711546871 457.1685028233224C119.79305593042028 448.2679799554839 117.69881510603878 417.77060446720265 116.52080464232418 400.62400819441615C115.34279417860958 383.47741192162965 115.60457428165728 369.0795033929798 115.73546433318111 354.28892518660024C115.86635438470495 339.49834698022 116.78258474537188 326.93289694766764 117.30614495146725 311.88053895613126C117.82970515756261 296.82818096459283 118.35326536365801 290.938127215508 118.87682556975338 263.97477723737876C119.40038577584875 237.0114272592496 119.79305593042031 171.3046263216 120.44750618803951 150.10043908735724C121.10195644565871 128.89625185311456 99.37420678008053 139.62923496544974 122.80352711546871 136.74965383192517C146.2328474508569 133.8700726984006 210.89253973830196 133.21562244078137 261.0234282003688 132.82295228620984C311.154316662435 132.4302821316383 378.9553485698344 134.26274285297214 423.58885788786836 134.39363290449597C468.2223672059017 134.52452295601984 501.99202052620967 133.47740254382907 528.8244841085666 133.6082925953529C555.6569476909235 133.73918264687674 566.7825987325903 134.7863030590675 584.5836393820041 135.17897321363904C602.3846800314184 135.57164336821057 615.9972186870175 135.4407533166867 635.6307280050512 135.9643135227821C655.2642373230851 136.4878737288775 691.7825936463273 134.00096259097873 702.3846952902074 138.32033445021128 " fill="url(&quot;#ssshape-pattern11&quot;)" transform="matrix(2.1557247450409123,0,0,2.1557247450409123,-449.4211239267347,-292.1792642211835)"></path><path d="M587.6204597993773 263.1263573750676C607.253969117411 263.6499175811629 643.7723254406532 261.1630064432642 654.3744270845335 265.4823783024968C664.9765287284137 269.8017501617294 661.4424914562782 281.05829538750856 651.2330696626585 289.0425885304631C641.0236478690387 297.0268816734176 617.7252317313433 311.16300612537276 593.1178963228148 313.38813716022383C568.5105609142862 315.6132681950749 529.5052915457965 307.23630648700606 503.58905721148665 302.39337473956954C477.6728228771763 297.550442992133 461.3115863049107 286.81745781350344 437.62049031695494 284.3305466756047C413.9293943289992 281.84363553770595 384.3482404593703 282.8907559498967 361.4424812837518 287.47190791217696C338.53672210813335 292.05305987445723 318.5105431123651 301.08447390643965 300.185935263244 311.81745844928633C281.8613274141229 322.550442992133 269.29588246783385 349.90646487323653 251.49483418902526 351.86981516925704C233.69378591021666 353.83316546527755 215.76184519569844 327.65515198159426 193.37964559039244 323.5975602254094C170.99744598508647 319.5399684692245 133.03933263262877 319.67086090493416 117.20163655718932 327.52426463214766C101.36394048174986 335.3776683593612 102.14928079089293 356.3200778747421 98.35346913775572 370.71798258869063C94.55765748461852 385.11588730263924 93.37964622617532 399.77556671548103 94.42676663836608 413.91169291583907C95.47388705055683 428.04781911619716 101.62572058479756 440.48238179930263 104.63619161090026 455.5347397908391C107.64666263700295 470.5870977823756 111.44247238279152 485.90123555906825 112.48959279498229 504.2258408650578C113.53671320717305 522.5504461710478 115.23828562538594 552.6551468953327 110.91891408404479 565.4823716267787C106.59954254270363 578.3095963582249 92.59430607597797 578.0478267455945 86.57336354693541 581.1891892537323C80.55242101789285 584.3305517618707 77.80373009483785 593.2310695434459 74.79325890978942 584.3305466756077C71.78278772474098 575.4300238077695 69.68854690035948 544.9326483194849 68.51053643664488 527.786052046699C67.33252597293028 510.63945577391246 67.59430607597798 496.24154724526625 67.72519612750182 481.450969038886C67.85608617902565 466.66039083250575 68.77231653969258 454.09494079995375 69.29587674578795 439.04258280841725C69.81943695188332 423.99022481688075 70.34299715797871 418.1001710677963 70.86655736407408 391.1368210896672C71.39011757016945 364.17347111153816 71.782787724741 298.4666701738855 72.43723798236022 277.2624829396428C73.09168823997943 256.05829570540004 51.36393857440123 266.7912788177352 74.79325890978942 263.91169768421065C98.2225792451776 261.03211655068606 162.88227153262267 260.37766629306685 213.01315999468932 259.9849961384953C263.14404845675597 259.5923259839238 330.94508036415544 261.4247867052576 375.5785896821893 261.55567675678145C420.2120990002232 261.68656680830526 453.9817523205357 260.6394463961145 480.81421590289244 260.7703364476384C507.6466794852496 260.9012264991622 518.7723305269163 261.948346911353 536.5733711763304 262.3410170659245C554.3744118257445 262.73368722049605 567.9869504813433 262.6027971689722 587.6204597993773 263.1263573750676C607.253969117411 263.6499175811629 643.7723254406532 261.1630064432642 654.3744270845335 265.4823783024968 " fill-opacity="1" fill="url(&quot;#ssshape-pattern11&quot;)" opacity="1" stroke-opacity="1" stroke-width="0" stroke="hsl(340, 45%, 30%)" transform="matrix(-1.795856326022131,-6.028121064455057e-16,6.028121064455057e-16,-1.795856326022131,962.2336292770264,1072.0763864100659)"></path><defs><pattern id="ssshape-pattern11" width="22" height="22" viewBox="0 0 40 40" patternUnits="userSpaceOnUse" patternTransform="scale(6) rotate(62)">
  <rect width="100%" height="100%" fill="#00a1cf"></rect>
  <path d="M0 5.5a 14.5 14.5 0 0 1 14.5 14.5a 5.5 5.5 0 0 0 5.5 5.5v9a-14.5-14.5 0 0 1-14.5-14.5a-5.5-5.5 0 0 0-5.5-5.5z" fill="#e97a2c"></path>
  <path d="M20 25.5a 5.5-5.5 0 0 0 5.5-5.5a 14.5-14.5 0 0 1 14.5-14.5v9a-5.5 5.5 0 0 0-5.5 5.5a-14.5 14.5 0 0 1-14.5 14.5zM20 65.5a 5.5-5.5 0 0 0 5.5-5.5a 14.5-14.5 0 0 1 14.5-14.5v9a-5.5 5.5 0 0 0-5.5 5.5a-14.5 14.5 0 0 1-14.5 14.5z" fill="#e97a2c"></path>
</pattern></defs></svg>