<svg xmlns="http://www.w3.org/2000/svg" version="1.1" xmlns:xlink="http://www.w3.org/1999/xlink" xmlns:svgjs="http://svgjs.dev/svgjs" viewBox="0 0 600 600" opacity="1"><path d="M547.7099263966442 22.136745002995802C567.343435714678 22.6603052090912 603.8617920379202 20.173394071192433 614.4638936818004 24.492765930424994C625.0659953256807 28.81213778965759 621.5319580535452 40.068683015436775 611.3225362599254 48.052976158391274C601.1131144663057 56.0372693013458 577.8146983286103 70.17339375329983 553.2073629200817 72.39852478815074C528.600027511553 74.62365582300173 489.5947581430635 66.2466941149333 463.67852380875354 61.40376236749772C437.76228947444366 56.560830620061196 421.40105290217804 45.82784544143165 397.7099569142223 43.340934303532876C374.01886092626654 40.85402316563413 344.43770705663763 41.90114357782487 321.53194788101916 46.48229554010514C298.6261887054007 51.063447502385415 278.60000970963245 60.09486153436784 260.27540186051135 70.82784607721335C241.95079401139026 81.56083062005983 229.3853490651012 108.91685250116338 211.5843007862926 110.88020279718388C193.783252507484 112.84355309320439 175.8513117929658 86.66553960952108 153.4691121876598 82.6079478533362C131.08691258235382 78.5503560971513 93.12879922989612 78.68124853286092 77.29110315445666 86.53465226007448C61.45340707901721 94.38805598728801 62.23874738816028 115.33046550266893 58.44293573502307 129.72837021661763C54.64712408188586 144.12627493056618 53.46911282344267 158.78595434340798 54.51623323563342 172.92208054376607C55.56335364782417 187.0582067441241 61.71518718206491 199.49276942722958 64.7256582081676 214.54512741876613C67.7361292342703 229.59748541030262 71.53193898005887 244.91162318699537 72.57905939224963 263.2362284929876C73.6261798044404 281.560833798978 75.32775222265329 311.66553452326184 71.00838068131213 324.49275925470715C66.68900913997098 337.31998398615247 52.683772673245315 337.05821437352233 46.66283014420276 340.1995768816603C40.6418876151602 343.34093938979834 37.89319669210519 352.2414571713739 34.88272550705676 343.3409343035353C31.87225432200833 334.4404114356968 29.77801349762683 303.9430359474155 28.60000303391223 286.796439674629C27.42199257019763 269.64984340184253 27.68377267324533 255.25193487319268 27.814662724769164 240.46135666681312C27.945552776293 225.67077846043287 28.86178313695993 213.10532842788064 29.385343343055297 198.05297043634425C29.908903549150665 183.0006124448077 30.43246375524606 177.11055869572323 30.95602396134143 150.1472087175942C31.479584167436798 123.18385873946488 31.872254322008345 57.47705780181373 32.52670457962756 36.27287056757097C33.18115483724678 15.068683333328266 11.453405171668578 25.801666445663457 34.88272550705676 22.92208531213887C58.312045842444945 20.04250417861431 122.97173812989001 19.388053920995077 173.10262659195666 18.995383766423544C223.23351505402331 18.60271361185201 291.0345469614228 20.43517433318584 335.66805627945666 20.566064384709676C380.30156559749054 20.696954436233533 414.07121891780304 19.649834024042775 440.9036825001598 19.78072407556661C467.7361460825165 19.91161412709046 478.8617971241832 20.958734539281203 496.6628377735973 21.351404693852736C514.4638784230114 21.74407484842427 528.0764170786103 21.613184796900434 547.7099263966442 22.136745002995802C567.343435714678 22.6603052090912 603.8617920379202 20.173394071192433 614.4638936818004 24.492765930424994 " fill="url(&quot;#ssshape-pattern2&quot;)" transform="matrix(1.1576250000000001,0,0,1.1576250000000001,-46.439978057265364,-25.861457101215166)"></path><path d="M603.1329958892137 235.48782209297417C622.7665052072475 236.0113822990695 659.2848615304897 233.52447116117077 669.88696317437 237.84384302040337C680.4890648182502 242.16321487963594 676.9550275461147 253.41976010541515 666.745605752495 261.4040532483697C656.5361839588752 269.3883463913242 633.2377678211799 283.52447084327935 608.6304324126512 285.7496018781304C584.0230970041226 287.9747329129815 545.017827635633 279.59777120491265 519.1015933013231 274.7548394574761C493.1853589670132 269.9119077100396 476.8241223947476 259.17892253141 453.1330264067918 256.6920113935113C429.4419304188361 254.20510025561254 399.8607765492072 255.25222066780327 376.9550173735887 259.83337263008355C354.04925819797023 264.4145245923638 334.023079202202 273.44593862434624 315.6984713530809 284.1789231671929C297.3738635039598 294.9119077100396 284.80841855767073 322.2679295911431 267.00737027886214 324.2312798871636C249.20632200005355 326.19463018318413 231.27438128553533 300.01661669950084 208.89218168022933 295.95902494331597C186.50998207492336 291.9014331871311 148.55186872246566 292.03232562284074 132.7141726470262 299.88572935005425C116.87647657158675 307.7391330772678 117.66181688072982 328.68154259264867 113.86600522759261 343.0794473065972C110.0701935744554 357.4773520205458 108.89218231601221 372.1370314333876 109.93930272820296 386.27315763374565C110.98642314039371 400.40928383410375 117.13825667463445 412.8438465172092 120.14872770073714 427.8962045087457C123.15919872683983 442.9485625002822 126.9550084726284 458.26270027697484 128.00212888481917 476.58730558296446C129.04924929700994 494.91191088895397 130.75082171522283 525.0166116132389 126.43145017388167 537.8438363446849C122.11207863254052 550.6710610761311 108.10684216581485 550.4092914635007 102.0858996367723 553.5506539716384C96.06495710772974 556.6920164797768 93.31626618467473 565.5925342613521 90.3057949996263 556.6920113935139C87.29532381457787 547.7914885256757 85.20108299019637 517.2941130373911 84.02307252648177 500.1475167646051C82.84506206276717 483.0009204918186 83.10684216581487 468.60301196317283 83.2377322173387 453.8124337567926C83.36862226886254 439.02185555041234 84.28485262952947 426.45640551786033 84.80841283562484 411.40404752632384C85.3319730417202 396.35168953478734 85.8555332478156 390.46163578570287 86.37909345391097 363.4982858075738C86.90265366000634 336.53493582944475 87.29532381457788 270.8281348917921 87.9497740721971 249.62394765754937C88.60422432981632 228.4197604233066 66.87647466423812 239.15274353564178 90.3057949996263 236.27316240211724C113.73511533501448 233.39358126859264 178.39480762245955 232.73913101097344 228.5256960845262 232.3464608564019C278.65658454659285 231.95379070183037 346.45761645399233 233.78625142316417 391.0911257720262 233.91714147468804C435.7246350900601 234.04803152621187 469.4942884103726 233.0009111140211 496.3267519927293 233.13180116554497C523.1592155750861 233.26269121706878 534.2848666167528 234.30981162925957 552.0859072661668 234.7024817838311C569.8869479155809 235.09515193840264 583.4994865711798 234.96426188687877 603.1329958892137 235.48782209297417C622.7665052072475 236.0113822990695 659.2848615304897 233.52447116117077 669.88696317437 237.84384302040337 " fill-opacity="1" fill="url(&quot;#ssshape-pattern2&quot;)" opacity="1" stroke-opacity="1" stroke-width="0" stroke="hsl(340, 45%, 30%)" transform="matrix(-1.551328215978517,-5.207317623975861e-16,5.207317623975861e-16,-1.551328215978517,870.2073839454907,971.0564907696939)"></path><defs><pattern id="ssshape-pattern2" width="76" height="76" viewBox="0 0 40 40" patternUnits="userSpaceOnUse" patternTransform="scale(1.6) rotate(99)">
  <rect width="100%" height="100%" fill="#00a1cf"></rect>
  <path d="M0 20v20l14-20L20 0l-20 20zM20 20v20l14-20L40 0l-20 20z" fill="#e97a2c" fill-opacity="0.5"></path>
  <path d="M0 40v-20l20-20l-10 20zM20 40v-20l20-20l-10 20zM20 20v20l-20 20l9-20zM20-20v20l-20 20l9-20zM40 20v20l-20 20l9-20zM40-20v20l-20 20l9-20z" fill="#e97a2c"></path>
</pattern></defs></svg>