<svg xmlns="http://www.w3.org/2000/svg" version="1.1" xmlns:xlink="http://www.w3.org/1999/xlink" xmlns:svgjs="http://svgjs.dev/svgjs" viewBox="0 0 600 600" opacity="1"><path d="M483.44226842593207 148.2850690521978C443.52080541323676 97.63061704617567 368.12814590802844 77.73532539985405 321.6621780939008 65.82432991645561C275.1962102797732 53.91333443305717 244.9605993178592 64.25365120551811 204.64646154116645 76.81909615180717C164.33232376447373 89.38454109809624 107.52604235679956 107.70914640408583 79.77735143374457 141.21699959418999C52.02866051068956 174.72485278429414 36.452744856189234 224.07040077827202 38.15431600283637 277.8662152924322C39.8558871494835 331.66202980659233 34.489394560168726 429.56780424099986 89.98677831362738 463.9918866791509C145.48416206708603 498.415969117302 292.6045888808474 500.11751737576554 371.1386185235883 484.4107099213384C449.6726481663292 468.70390246691136 542.4736811863487 425.7719820974452 561.1909561700727 369.7510419525884C579.9082311537967 313.73010180773167 523.3637314386274 198.93952105821992 483.44226842593207 148.2850690521978C443.52080541323676 97.63061704617567 368.12814590802844 77.73532539985405 321.6621780939008 65.82432991645561 " fill="#d2e5ff" transform="matrix(0.9925187343749998,0,0,0.9925187343749998,3.367994269198391,2.2184342196799776)"></path><path d="M398.0477340131421 47.4838305486162C358.12627100044676 -3.170621457405929 282.73361149523845 -23.065913103727553 236.26764368111083 -34.97690858712599C189.8016758669832 -46.88790407052443 159.56606490506917 -36.54758729806349 119.25192712837645 -23.982142351774428C78.93778935168373 -11.416697405485365 22.131507944009584 6.907907900504227 -5.617182979045424 40.415761090608385C-33.36587390210043 73.92361428071254 -48.94178955660076 123.26916227469042 -47.24021840995363 177.06497678885057C-45.538647263306494 230.86079130301073 -50.90513985262127 328.76656573741826 4.5922439008373885 363.1906481755693C60.08962765429604 397.6147306137204 207.21005446805742 399.3162788721839 285.7440841107983 383.6094714177568C364.27811375353923 367.90266396332976 457.0791467735587 324.9707435938636 475.7964217572827 268.9498034490068C494.5136967410067 212.92886330415007 437.9691970258374 98.13828255463832 398.0477340131421 47.4838305486162C358.12627100044676 -3.170621457405929 282.73361149523845 -23.065913103727553 236.26764368111083 -34.97690858712599 " fill-opacity="0.89" fill="none" opacity="1" stroke-opacity="1" stroke-width="10" stroke="#00a1cf" transform="matrix(0.9640703075748397,-0.17544644784855204,0.17544644784855204,0.9950062499999999,32.29174039842917,123.63426849541065)"></path><defs></defs></svg>