<svg xmlns="http://www.w3.org/2000/svg" version="1.1" xmlns:xlink="http://www.w3.org/1999/xlink" xmlns:svgjs="http://svgjs.dev/svgjs" viewBox="0 0 600 600"><path d="M592.1465415754865 261.518310546875C589.528743723924 167.14657910664874 392.6700993973961 13.874342600504557 295.2878989973615 15.706806182861328C197.90569859732688 17.539269765218098 5.235541323716461 178.14136060078937 7.853339175278961 272.5130920410156C10.471137026841461 366.8848234812419 213.61248570670188 583.7696584065756 310.9946861067365 581.9371948242188C408.3768865067711 580.1047312418619 594.764339427049 355.89004198710126 592.1465415754865 261.518310546875C589.528743723924 167.14657910664874 392.6700993973961 13.874342600504557 295.2878989973615 15.706806182861328 " fill="url(&quot;#ssshape-pattern5&quot;)" transform="matrix(1.0395393094160157,0,0,1.0395393094160157,-11.861808511176264,-11.815121646238822)"></path><path d="M497.8479711227576 139.59565501200223C495.2301732711951 45.22392357177597 298.3715289446672 -108.04831293436823 200.9893285446326 -106.21584935201145C103.607128144598 -104.3833857696547 -89.06302912901242 56.218705065916595 -86.44523127744992 150.59043650614285C-83.82743342588742 244.9621679463691 119.313915253973 461.8470028717028 216.6961156540076 460.014539289346C314.0783160540422 458.18207570698917 500.4657689743201 233.96738645222848 497.8479711227576 139.59565501200223C495.2301732711951 45.22392357177597 298.3715289446672 -108.04831293436823 200.9893285446326 -106.21584935201145 " fill-opacity="1" fill="#d2e5ff" opacity="1" stroke-opacity="1" stroke-width="0" stroke="hsl(340, 45%, 30%)" transform="matrix(0.6208545578768785,0,0,-0.6208545578768785,178.1794088454435,390.19141764268454)"></path><defs><pattern id="ssshape-pattern5" width="20" height="20" patternUnits="userSpaceOnUse" patternTransform="scale(5) rotate(36)">
  <rect width="100%" height="100%" fill="#f4bd6e"></rect>
  <rect width="5" height="5" fill="#00a1cf"></rect>
</pattern></defs></svg>