<svg xmlns="http://www.w3.org/2000/svg" version="1.1" xmlns:xlink="http://www.w3.org/1999/xlink" xmlns:svgjs="http://svgjs.dev/svgjs" viewBox="0 0 600 600"><path d="M317.06585693359375,38.62275314331055C290.7185516357422,35.778441747029625,257.6347236633301,38.62275505065918,222.75448608398438,56.58682632446289C187.87424850463867,74.5508975982666,134.88023885091147,113.3233496348063,107.78443145751953,146.4071807861328C80.68862406412761,179.49101193745932,66.91616821289062,216.16765594482422,60.17964172363281,255.08981323242188C53.443115234375,294.01197052001953,54.341321309407554,341.16766866048175,67.36527252197266,379.94012451171875C80.38922373453777,418.71258036295575,97.9041862487793,464.670654296875,138.32334899902344,487.72454833984375C178.74251174926758,510.7784423828125,262.42515818277997,517.9640858968099,309.8802490234375,518.2634887695312C357.33533986409503,518.5628916422526,399.101801554362,513.1736602783203,423.05389404296875,489.5209655761719C447.0059865315755,465.86827087402344,452.24549865722656,415.1197764078776,453.5928039550781,376.3473205566406C454.9401092529297,337.5748647054036,437.12574768066406,293.56287892659503,431.1377258300781,256.88623046875C425.1497039794922,220.20958201090494,426.04790751139325,186.82635243733725,417.6646728515625,156.2874298095703C409.28143819173175,125.74850718180339,397.6047871907552,93.26347414652507,380.83831787109375,73.65269470214844C364.0718485514323,54.041915257771805,343.4131622314453,41.46706453959147,317.06585693359375,38.62275314331055C290.7185516357422,35.778441747029625,257.6347236633301,38.62275505065918,222.75448608398438,56.58682632446289" fill="#e97a2c" stroke-width="0" stroke="hsl(340, 45%, 30%)" fill-opacity="1"></path><defs><linearGradient id="SvgjsLinearGradient1000"><stop stop-color="hsl(30, 100%, 50%)" offset="0"></stop><stop stop-color="hsl(30, 100%, 70%)" offset="1"></stop></linearGradient><radialGradient id="SvgjsRadialGradient1001"><stop stop-color="hsl(340, 45%, 50%)" offset="0"></stop><stop stop-color="hsl(340, 45%, 80%)" offset="1"></stop></radialGradient></defs><path d="M298.2035823867658 -9.880239881801344C271.8562770889142 -12.724551278082266 238.77244911650212 -9.880237974452712 203.8922115371564 8.083833299351C169.0119739578107 26.04790457315471 116.0179643040835 64.82035660969441 88.92215691069157 97.90418776102092C61.82634951729965 130.98801891234743 48.05389366606266 167.66466291971233 41.31736717680485 206.58682020730998C34.58084068754704 245.50897749490764 35.47904676257959 292.66467563536986 48.502997975144694 331.43713148660686C61.5269491877098 370.20958733784386 79.04191170195134 416.1676612717631 119.46107445219548 439.22155531473186C159.88023720243962 462.2754493577006 243.562883635952 469.461092871698 291.01797447660954 469.7604957444194C338.47306531726707 470.0598986171406 380.23952700753404 464.6706672532085 404.1916194961408 441.01797255106C428.14371198474754 417.36527784891155 433.3832241103986 366.61678338276573 434.73052940825016 327.84432753152873C436.0778347061017 289.07187168029174 418.2634731338361 245.05988590148314 412.27545128325016 208.3832374436381C406.2874294326642 171.70658898579305 407.1856329645653 138.32335941222536 398.80239830473454 107.78443678445842C390.4191636449038 77.2455141566915 378.7425126439272 44.76048112141318 361.9760433242658 25.149701677036546C345.20957400460435 5.538922232659914 324.55088768461735 -7.035928485520422 298.2035823867658 -9.880239881801344C271.8562770889142 -12.724551278082266 238.77244911650212 -9.880237974452712 203.8922115371564 8.083833299351 " fill-opacity="0.41" fill="#e97a2c" opacity="1" stroke-opacity="1" stroke-width="0" stroke="hsl(340, 45%, 30%)" transform="matrix(1,0,0,1,64.00601959228516,70.5301284790039)"></path></svg>