<svg xmlns="http://www.w3.org/2000/svg" version="1.1" xmlns:xlink="http://www.w3.org/1999/xlink" xmlns:svgjs="http://svgjs.dev/svgjs" viewBox="0 0 600 600"><path d="M508.9005126953125,80.1047134399414C458.5078430175781,32.19895267486572,359.68587493896484,5.366492589314778,289.79058837890625,4.712041854858398C219.89530181884766,4.0575911204020185,137.30366452534994,35.60209242502848,89.52879333496094,76.17800903320312C41.75392214457194,116.75392564137778,9.162303288777668,178.53403218587238,3.1413612365722656,248.16754150390625C-2.8795808156331377,317.8010508219401,17.015705744425453,436.91100056966144,53.403141021728516,493.97906494140625C89.79057629903158,551.047129313151,150.39267539978027,584.0314229329427,221.46597290039062,590.575927734375C292.539270401001,597.1204325358073,418.0628204345703,582.9843139648438,479.8429260253906,533.24609375C541.6230316162109,483.50787353515625,587.3036753336588,367.67016983032227,592.1466064453125,292.1466064453125C596.9895375569662,216.62304306030273,559.2931823730469,128.0104742050171,508.9005126953125,80.1047134399414C458.5078430175781,32.19895267486572,359.68587493896484,5.366492589314778,289.79058837890625,4.712041854858398" fill="url(&quot;#ssshape-pattern2&quot;)" transform="matrix(1,0,0,1,2.6786177158355713,1.6116490364074707)"></path><path d="M403.76197661597143 -23.840552693711146C353.36930693823706 -71.74631345878683 254.54733885962378 -98.57877354433779 184.65205229956518 -99.23322427879415C114.75676573950659 -99.88767501325052 32.16512844600888 -68.34317370862408 -15.609742744380128 -27.767257100449427C-63.384613934769135 12.808659507725224 -95.9762327905634 74.58876605221982 -101.9971748427688 144.2222753702537C-108.0181168949742 213.85578468828757 -88.12283033491562 332.9657344360088 -51.73539505761255 390.03379880775367C-15.34795978030948 447.1018631794982 45.25413932043921 480.08615679929005 116.32743682104956 486.63066160072253C187.4007343216599 493.1751664021547 312.92428435522925 479.03904783119117 374.70438994604956 429.3008276163473C436.4844955368699 379.56260740150367 482.16513925431775 263.7249036966697 487.00807036597143 188.20134031165995C491.8510014776251 112.67777692665018 454.1546462937058 24.065208071364538 403.76197661597143 -23.840552693711146C353.36930693823706 -71.74631345878683 254.54733885962378 -98.57877354433779 184.65205229956518 -99.23322427879415 " fill-opacity="1" fill="#d2e5ff" opacity="1" stroke-opacity="1" stroke-width="0" stroke="hsl(340, 45%, 30%)" transform="matrix(0.6286737862002976,0,0,-0.6286737862002976,171.396360340736,411.59819996707984)"></path><defs><pattern id="ssshape-pattern6" width="40" height="40" patternUnits="userSpaceOnUse">
  <rect width="100%" height="100%" fill="#f4bd6e"></rect>
  <polygon points="30 22 38 38 22 38" fill="#e97a2c"></polygon>
  <polygon transform="translate(11.000000, 10.000000) scale(1, -1) translate(-11.000000, -10.000000) " points="11 2 19 18 3 18" fill="#e97a2c" fill-opacity="0.5"></polygon>
</pattern><pattern id="ssshape-pattern2" width="76" height="76" viewBox="0 0 40 40" patternUnits="userSpaceOnUse" patternTransform="scale(6) rotate(107)">
  <rect width="100%" height="100%" fill="#f4bd6e"></rect>
  <path d="M0 20v20l14-20L20 0l-20 20zM20 20v20l14-20L40 0l-20 20z" fill="#e97a2c" fill-opacity="0.5"></path>
  <path d="M0 40v-20l20-20l-10 20zM20 40v-20l20-20l-10 20zM20 20v20l-20 20l9-20zM20-20v20l-20 20l9-20zM40 20v20l-20 20l9-20zM40-20v20l-20 20l9-20z" fill="#e97a2c"></path>
</pattern></defs></svg>