<svg xmlns="http://www.w3.org/2000/svg" version="1.1" xmlns:xlink="http://www.w3.org/1999/xlink" xmlns:svgjs="http://svgjs.dev/svgjs" viewBox="0 0 600 600"><path d="M162.86154752927138 335.6835432232302C119.89747720914198 326.10270724504005 62.86154689348851 298.70750969458436 47.891487180760635 286.2823591411989C32.92142746803277 273.8572085878135 40.10705667691542 267.2703657329958 73.04118925290419 261.1326399029177C105.97532182889296 254.99491407283955 177.83161232826228 250.9530083518109 245.49628263669325 249.45600416073017C313.1609529451242 247.95899996964945 426.9334011669667 245.11468539445414 479.0292111034901 252.1506147564333C531.1250210400135 259.1865441184124 563.0112616812894 277.15062492895936 558.0711422558338 291.6715803326052C553.131022830378 306.192535736251 491.45436674313856 330.59371473201924 449.38849455075575 339.2763471783083C407.32262235837294 347.95897962459736 353.4304002717844 344.36617566951924 305.675909101537 343.76737501033955C257.92141793128957 343.16857435115986 205.82561784940077 345.2643792014203 162.86154752927138 335.6835432232302C119.89747720914198 326.10270724504005 62.86154689348851 298.70750969458436 47.891487180760635 286.2823591411989 " fill="#d2e5ff" transform="matrix(1.09974375,0,0,1.09974375,-29.26232582521442,-29.310166247844734)"></path></svg>