<svg xmlns="http://www.w3.org/2000/svg" version="1.1" xmlns:xlink="http://www.w3.org/1999/xlink" xmlns:svgjs="http://svgjs.dev/svgjs" viewBox="0 0 600 600"><path d="M400.59881591796875,116.76646423339844C385.92815653483075,111.52694320678711,375.89821370442706,100.14970143636067,352.9940185546875,97.00598907470703C330.08982340494794,93.86227671305339,299.99999237060547,94.91017786661784,263.17364501953125,97.90419006347656C226.34729766845703,100.89820226033528,160.77844874064127,105.98802693684895,132.0359344482422,114.97006225585938C103.2934201558431,123.9520975748698,107.93412907918294,138.92214965820312,90.71855926513672,151.79640197753906C73.5029894510905,164.670654296875,41.46706581115723,176.49701182047525,28.742515563964844,192.215576171875C16.01796531677246,207.93414052327475,15.119760831197103,221.2574920654297,14.371257781982422,246.1077880859375C13.62275473276774,270.9580841064453,12.425150553385416,317.8143564860026,24.251497268676758,341.3173522949219C36.0778439839681,364.8203481038411,58.532931327819824,379.04192606608075,85.32933807373047,387.1257629394531C112.12574481964111,395.2095998128255,158.98203404744467,392.5149892171224,185.02993774414062,389.82037353515625C211.07784144083658,387.1257578531901,214.07184855143228,378.89220174153644,241.61676025390625,370.95806884765625C269.1616719563802,363.02393595377606,318.2634785970052,349.101801554362,350.2994079589844,342.215576171875C382.33533732096356,335.329350789388,407.0359293619792,336.227544148763,433.83233642578125,329.6407165527344C460.6287434895833,323.05388895670575,492.6646728515625,314.0718536376953,511.0778503417969,302.6946105957031C529.4910278320312,291.31736755371094,536.5269724527994,275.74851481119794,544.3114013671875,261.37725830078125C552.0958302815756,247.0060017903646,559.7305399576823,234.7305475870768,557.784423828125,216.46707153320312C555.8383076985677,198.20359547932944,543.2634480794271,164.97005462646484,532.6347045898438,151.79640197753906C522.0059611002604,138.62274932861328,509.2814178466797,141.31737009684244,494.011962890625,137.42515563964844C478.7425079345703,133.53294118245444,456.5868326822917,131.88623046875,441.0179748535156,128.443115234375C425.44911702473956,125,415.26947530110675,122.00598526000977,400.59881591796875,116.76646423339844C385.92815653483075,111.52694320678711,375.89821370442706,100.14970143636067,352.9940185546875,97.00598907470703" fill="url(&quot;#ssshape-pattern11&quot;)" stroke-width="0" stroke="hsl(340, 45%, 30%)" stroke-opacity="1"></path><defs><pattern id="ssshape-pattern11" width="22" height="22" viewBox="0 0 40 40" patternUnits="userSpaceOnUse" patternTransform="scale(6) rotate(157)">
  <rect width="100%" height="100%" fill="hsl(35, 86%, 69%)"></rect>
  <path d="M0 5.5a 14.5 14.5 0 0 1 14.5 14.5a 5.5 5.5 0 0 0 5.5 5.5v9a-14.5-14.5 0 0 1-14.5-14.5a-5.5-5.5 0 0 0-5.5-5.5z" fill="#ffd7b2"></path>
  <path d="M20 25.5a 5.5-5.5 0 0 0 5.5-5.5a 14.5-14.5 0 0 1 14.5-14.5v9a-5.5 5.5 0 0 0-5.5 5.5a-14.5 14.5 0 0 1-14.5 14.5zM20 65.5a 5.5-5.5 0 0 0 5.5-5.5a 14.5-14.5 0 0 1 14.5-14.5v9a-5.5 5.5 0 0 0-5.5 5.5a-14.5 14.5 0 0 1-14.5 14.5z" fill="#ffd7b2"></path>
</pattern></defs></svg>