<svg xmlns="http://www.w3.org/2000/svg" version="1.1" xmlns:xlink="http://www.w3.org/1999/xlink" xmlns:svgjs="http://svgjs.dev/svgjs" viewBox="0 0 800 800"><defs><linearGradient x1="50%" y1="0%" x2="50%" y2="100%" id="wwwhirl-grad"><stop stop-color="hsl(206, 75%, 49%)" stop-opacity="1" offset="45%"></stop><stop stop-color="hsl(331, 90%, 56%)" stop-opacity="1" offset="100%"></stop></linearGradient></defs><g stroke-width="2" stroke="url(#wwwhirl-grad)" fill="none" stroke-linecap="round"><path d="M-462.7499983544349 659.8545619844908C-426.8020805907248 560.5035042650372 -362.09582861604673 225.47789768670043 -290.1999930886266 182.96948493111327C-218.30415756120658 140.4610721755261 -189.5458233502385 472.6198323122071 -117.64998782281833 455.8141807576726C-45.75415229539823 439.0085292031381 -16.995818084430084 94.88809943058271 54.900017442989906 102.30235746934791C126.79585297041001 109.71661550811311 155.5541871813781 452.8484775421665 227.4500227087982 491.4026193437456C299.3458582362183 529.9567611453247 328.1041924471864 256.22235435411346 400.0000279746065 287.3622381169273C471.8958635020266 318.50212187974114 500.6541977129946 629.9998162817297 572.5500332404147 640.8740614052521C644.445868767835 651.7483065287743 673.2042029788029 340.54718244833634 745.100038506223 339.5586147098343C816.9958740336433 338.57004697133226 845.7542082446112 655.4060071612317 917.6500437720315 636.1289362604423C989.5458792994516 616.8518653596527 1018.3042135104195 234.17729378551823 1090.2000490378398 247.0286743860446C1162.09588456526 259.88005498657094 1226.802136539938 603.9016279852763 1262.750054303648 697.8155631429687 " transform="rotate(87, 400, 400)"></path><path d="M-432.9999984111785 650.8940982571498C-398.29166401863085 554.9689390797462 -335.8166621120451 231.49593962480046 -266.3999933269498 190.45333420561286C-196.98332454185459 149.41072878642527 -169.2166570278165 470.11573857356547 -99.79998824272121 453.8895922450494C-30.383319457625873 437.66344591653336 -2.6166519435877262 105.40923786027302 66.8000168415075 112.56783182873596C136.21668562660284 119.72642579719891 163.98335314064093 451.0261546576642 233.40002192573627 488.25084329367155C302.8166907108315 525.4755319296789 330.5833582248696 261.18024261402684 400.0000270099649 291.2463372815712C469.41669579506015 321.3124319491156 497.18336330909824 622.068826544139 566.6000320941935 632.5680976978847C636.0167008792889 643.0673688516302 663.7833683933268 342.5973180153454 733.2000371784222 341.6428388195504C802.6167059635177 340.68835962375533 830.3833734775556 646.598941876072 899.800042262651 627.9865975580684C969.2167110477465 609.3742532400647 996.9833785617843 239.89535654779695 1066.4000473468798 252.30358609313274C1135.8167161319752 264.7118156384685 1198.2917180385607 596.8705757751494 1233.0000524311085 687.5460993756802 " transform="rotate(84, 400, 400)"></path><path d="M-403.2499984679222 641.9336345298088C-369.7812474465369 549.4343738944555 -309.5374956080435 237.51398156290048 -242.59999356527305 197.93718348011248C-175.66249152250265 158.36038539732442 -148.88749070539444 467.61164483492394 -81.94998866262404 451.9650037324263C-15.012486619853519 436.31836262992874 11.762514197254688 115.93037628996332 78.70001624002509 122.83330618812403C145.63751828279555 129.73623608628472 172.41251909990376 449.20383177316205 239.35002114267422 485.0990672435977C306.2875231854447 520.9943027140334 333.0625240025528 266.1381308739402 400.00002604532335 295.1304364462152C466.9375280880937 324.12274201849016 493.7125289052019 614.1378368065484 560.6500309479725 624.2621339905174C627.5875329907428 634.3864311744865 654.3625338078509 344.6474535823546 721.3000358506215 343.7270629292665C788.2375378933921 342.80667227617835 815.0125387104999 637.7918765909124 881.9500407532705 619.8442588556945C948.8875427960413 601.8966411204767 975.6625436131492 245.6134193100757 1042.6000456559198 257.57849780022093C1109.5375476986903 269.5435762903661 1169.7812995371835 589.8395235650228 1203.250050558569 677.2766356083916 " transform="rotate(81, 400, 400)"></path><path d="M-373.4999985246658 632.9731250261007C-341.27083087444294 543.8997629327973 -283.2583291040419 243.53197772463335 -218.7999938035963 205.42098697824485C-154.3416585031507 167.3099962318564 -128.5583243829725 465.10750531991516 -64.0999890825268 450.04036944343596C0.3583462179187791 434.97323356695676 26.141680338097103 126.45146894328644 90.6000156385428 133.0987347711449C155.05835093898827 139.74600059900337 180.8416850591666 447.3814631122926 245.3000203596123 481.9472454171565C309.7583556600579 516.5130277220205 335.54168978023597 271.0959733574864 400.00002508068167 299.0144898344919C464.45836038112725 326.93300631149737 490.24169450130546 606.2068012925906 554.7000298017513 615.956124506783C619.158365102197 625.7054477209754 644.9416992223748 346.6975433729965 709.4000345228208 345.8112412626154C773.8583698232665 344.9249391522343 799.6417039434443 628.9847655293855 864.1000392438903 611.7018743769536C928.558374544336 594.4189832245215 954.3417086645138 251.33143629598726 1018.8000439649597 262.8533637309419C1083.2583792654054 274.37529116589656 1141.2708810358065 582.8084255785287 1173.5000486860292 667.0071260647359 " transform="rotate(78, 400, 400)"></path><path d="M-343.7499985814094 624.0126918163378C-312.760414302349 538.3652282650846 -256.9791626000403 249.55005018031153 -194.9999940419195 212.9048667703226C-133.02082548379877 176.25968336033367 -108.22915806055045 462.60344209885176 -46.24998950242963 448.11581144839096C15.729179055691134 433.6281807979302 40.52084647893952 136.97263789055486 102.50001503706028 143.3642396481111C164.47918359518098 149.7558414056673 189.27085101842943 445.5591707453685 251.25001957655024 478.7954998846607C313.22918813467106 512.031829023953 338.02085555791916 276.0538921349779 400.00002411604 302.89861951671395C461.9791926741609 329.74334689845 486.7708600974091 598.2758420725781 548.75002865553 607.6501913169939C610.7291972136509 617.0245405614096 635.520864636899 348.7477094575838 697.5000331950198 347.8954958899097C759.4792017531408 347.0432823222355 784.2708691763889 620.177730761804 846.2500377345098 603.559566192158C908.2292062926308 586.9414016225118 933.0208737158789 257.0495295758441 995.0000422739997 268.1283059556082C1056.9792108321208 279.2070823353723 1112.7604625344293 575.7774038859802 1143.7500468134897 656.7376928150255 " transform="rotate(75, 400, 400)"></path><path d="M-313.999998638153 615.0521365362624C-284.249997730255 532.8305715270593 -230.69999609603866 255.56800056567718 -171.19999428024272 220.3886244920878C-111.69999246444684 185.20924841849845 -87.89999173812839 460.09925680747574 -28.399989922332452 446.1911313830334C31.10001189346349 432.28300595859116 54.90001261978193 147.49368476751079 114.40001443557793 153.62962245476476C173.9000162513738 159.76556014201873 197.70001697769226 443.7367563081319 257.2000187934882 475.6436322818525C316.70002060928425 507.550508255573 340.50002133560247 281.0116888421569 400.0000231513984 306.7826271286235C459.50002496719435 332.55356541509013 483.3000256935128 590.3447607822532 542.8000275093087 599.3441360568922C602.3000293251049 608.3435113315313 626.100030051423 350.79775347185864 685.6000318672191 349.9796284468914C745.1000336830152 349.1615034219242 768.9000344093333 611.37057392391 828.4000362251295 595.4171359370497C887.9000380409254 579.4636979501894 911.7000387672435 262.7675007853885 971.2000405830397 273.403126109962C1030.7000423988359 284.0387514345355 1084.2500440330523 568.7462601231191 1114.00004494095 646.4681374950026 " transform="rotate(72, 400, 400)"></path><path d="M-284.24999869489665 606.0916422913432C-255.73958115816106 527.2959758241904 -204.42082959203705 261.5860119861991 -147.39999451856593 227.87244324900928C-90.37915944509484 194.15887451181948 -67.5708254157064 457.5951325512561 -10.549990342235276 444.2665123528322C46.4708447312359 430.9378921544083 69.27917876062429 158.01479267962299 126.30001383409547 163.89506629657467C183.32084890756664 169.7753399135264 206.1291829369551 441.91440290605146 263.15001801042627 472.4918257142004C320.1708530838973 503.0692485223493 342.97918711328566 285.96954658449215 400.00002218675684 310.66669577568933C457.020857260228 335.3638449668865 479.82919128961646 582.4137405270844 536.8500263630876 591.0381418319469C593.8708614365588 599.6625431368093 616.6791954659471 352.8478585212896 673.7000305394183 352.06382203902933C730.7208656128896 351.2797855567692 753.5291996422777 602.5634781211722 810.550034715749 587.2747667170977C867.5708697892203 571.9860553130234 890.3792038186086 268.4855330300891 947.4000388920797 278.67800729947203C1004.420873965551 288.870481568855 1055.739625531675 561.7151773954142 1084.2500430684104 636.198643210136 " transform="rotate(69, 400, 400)"></path><path d="M-254.49999875164028 597.1310870112678C-227.2291645860671 521.761319086165 -178.14166308803544 267.60396237156476 -123.59999475688917 235.35620097077452C-69.0583264257429 203.10843956998426 -47.2416590932844 455.0909472598801 7.3000092378619 442.3418322874747C61.841677569008255 429.5927173150692 83.65834490146676 168.5358395565789 138.20001323261312 174.16044910322836C192.74168156375936 179.78505864987784 214.55834889621792 440.0919884688149 269.1000172273642 469.3399581113921C323.6416855585105 498.58792775396927 345.45835289096885 290.92734329167115 400.00002122211527 314.5507033875989C454.54168955326156 338.17406348352665 476.3583568857201 574.4826592367593 530.9000252168663 582.7320865718452C585.4416935480127 590.981513906931 607.2583608804712 354.8979025355644 661.8000292116176 354.1479545960111C716.341697542764 353.3980066564578 738.1583648752221 593.7563212832781 792.7000332063687 579.1323364619896C847.2417015375152 564.508351640701 869.0583688699733 274.20350423963345 923.6000372011197 283.9528274538259C978.1417055322661 293.70215066801825 1027.2292070302979 554.6840336325532 1054.5000411958708 625.9290878901131 " transform="rotate(66, 400, 400)"></path><path d="M-224.7499988083839 588.1705469899815C-198.71874801397314 516.2266776069289 -151.86249658403383 273.6219280157195 -99.79999499521239 242.83997395132877C-47.73749340639097 212.0580198869381 -26.9124927708624 452.5867772272933 25.150008817959133 440.41716748090624C77.21251040678061 428.2475577345192 98.03751104230918 179.0569016923239 150.10001263113065 184.4258471686711C202.16251421995207 189.79479264501833 222.98751485548075 438.2695892903673 275.0500164443022 466.1881057673728C327.1125180331237 494.10662224437834 347.93751866865216 295.8851552576392 400.0000202574736 318.43472625829753C452.0625218462951 340.98429725895585 472.8875224818237 566.5515932052234 524.9500240706452 574.4260465705327C577.0125256594667 582.3004999358418 597.8375262949951 356.9479618086282 649.9000278838167 356.2321024117819C701.9625294726383 355.51624301493564 722.7875301081666 584.9491797041733 774.8500316969883 570.9899214656705C826.9125332858098 557.0306632271677 847.7375339213381 279.9214907079669 899.8000355101597 289.2276628669687C951.8625370989814 298.5338350259705 998.7187885289206 547.6529051284813 1024.7500393233313 615.6595478288792 " transform="rotate(63, 400, 400)"></path><path d="M-194.9999988651275 579.2101214096132C-170.20833144187918 510.6921505686106 -125.58333008003223 279.64000810079216 -75.9999952335356 250.32386137280105C-26.416660387039002 221.0077146448099 -6.583326448440346 450.08272163562435 43.00000839805631 438.4926171152557C92.58334324455296 426.9025125948871 112.41667718315159 189.57807826898687 162.00001202964825 194.69135967503183C211.58334687614484 199.8046410810768 231.41668081474347 436.44730455283775 281.0000156612401 463.03636786427154C330.5833505077368 489.62543117570533 350.41668444633535 300.8430816645253 400.000019292832 322.31886356991413C449.58335413932866 343.794645475303 469.41668807792735 558.6206416146055 519.000022924424 566.1201210101381C568.5833577709207 573.6196004056706 588.4166917095191 358.99813552261 638.000026556016 358.31636466847067C687.5833614025127 357.6345938143313 707.4166953411111 576.1421525659862 757.0000301876078 562.8476209102693C806.5833650341046 549.5530892545523 826.4166989727032 285.63959161721823 876.0000338191996 294.50261272102955C925.5833686656965 303.36563382484076 970.2083700275434 540.6218910653272 995.0000374507918 605.3901222085633 " transform="rotate(60, 400, 400)"></path><path d="M-165.24999892187114 570.2495737589323C-141.69791486978522 505.1575014599799 -99.30416357603059 285.65796611555237 -52.19999547185881 257.80762672396077C-5.095827367687036 229.95728733236922 13.74583987398168 447.5785439736429 60.850007978153485 436.56794467929274C107.95417608232526 425.5573453849426 126.795843323994 200.09913277533732 173.90001142816584 204.95675011108005C221.00417953233767 209.81436744682276 239.84584677400636 434.6248977449957 286.9500148781781 459.8845078908578C334.05418298234997 485.14411803671993 352.89585022401855 305.80088600109883 400.00001832819044 326.2028788112182C447.1041864323622 346.6048716213377 465.945853674031 550.689567953675 513.0500217782028 557.814073379431C560.1541898823747 564.9385788051869 578.9958571240433 361.0481871662794 626.1000252282151 360.400504854847C673.2041933323869 359.7528225434146 692.0458605740556 567.3350033574867 739.1500286782275 554.7051982845556C786.2541967823995 542.0753932116245 805.0958640240679 291.3575704561572 852.2000321282399 299.77744050477787C899.3042002324119 308.19731055339855 941.6979515261662 533.5907549318606 965.2500355782522 595.120574517935 " transform="rotate(57, 400, 400)"></path><path d="M-135.49999897861477 561.2890947728023C-113.18749829769128 499.6229210159 -73.02499707202901 291.67599279486336 -28.399995710182054 265.2914607396713C16.2250056516649 238.9069286844793 34.07500619640368 445.07443497621233 78.70000755825066 434.64334090788054C123.32500892009762 424.2122468395488 141.17500946483648 210.62025594623856 185.80001082668338 215.22220921167906C230.42501218853045 219.8241624771195 248.2750127332692 432.8025596017044 292.9000140951162 456.73271658199485C337.52501545696305 480.66287356228526 355.37501600170185 310.75875900222314 400.00001736354875 330.0869627170731C444.62501872539576 349.41516643192307 462.4750192701347 542.7585629572953 507.1000206319816 549.5080944132746C551.7250219938286 556.257625869254 569.5750225385673 363.0983074744994 614.2000239004144 362.484713705774C658.8250252622614 361.87111993704866 676.675025807 558.527922813538 721.300027168847 546.5628443233927C765.9250285306941 534.5977658332475 783.7750290754328 297.0756179596468 828.4000304372798 305.052336953077C873.025031799127 313.0290559465071 913.187533024789 526.5596874629448 935.5000337057124 584.8510954918574 " transform="rotate(54, 400, 400)"></path><path d="M-105.74999903535839 552.3285700103049C-84.67708172559732 494.08829479545284 -46.74583056802737 297.6939736978071 -4.599995948505267 272.7752489790147C37.54583867101684 247.85652426022222 54.4041725188257 442.5702802024145 96.55000713834784 432.71869136010116C138.69584175786997 422.8671025177879 155.5541756056789 221.14133334077263 197.70001022520097 225.48762253591084C239.84584484472316 229.83391173104906 256.70417869253197 430.9801756820459 298.85001331205416 453.5808794967646C340.99584793157624 476.18158331148334 357.85418177938504 315.71658622698027 400.0000163989072 333.9710008465608C442.1458510184294 352.2254154661413 459.00418486623823 534.8275121845485 501.15001948576037 541.2020696707511C543.2958541052826 547.5766271569539 560.1541879530913 365.14838200635234 602.3000225726134 364.5688767803339C644.4458571921358 363.9893715543154 661.3041910399445 549.720796493222 703.4500256594666 538.4204445858627C745.5958602789889 527.1200926785034 762.4541941267976 302.7936196867693 804.6000287463198 310.3271876250089C846.7458633658421 317.86075556324846 884.677114523412 519.5285742176618 905.7500318331731 574.5815706894127 " transform="rotate(51, 400, 400)"></path><path d="M-75.99999909210202 543.3680528772022C-56.16666515350336 488.55367620440023 -20.466664064025792 303.71196223014545 19.20000381317152 280.25904484775253C58.866671690368804 256.8061274653596 74.73333884124773 440.06613305801125 114.40000671844507 430.7940494417163C154.06667459564233 421.5219658254214 169.93334174652125 231.6624183647012 209.60000962371856 235.75304348953716C249.26667750091588 239.84366861437314 265.13334465179486 429.15779939178196 304.80001252899217 450.429050040929C344.4666804061895 471.700300690076 360.3333475570683 320.674421081132 400.0000154342656 337.855046605443C439.666683311463 355.0356721297541 455.5333504623418 526.896469041196 495.20001833953916 532.8960525576222C534.8666862167365 538.8956360740483 550.7333533676153 367.19846416759975 590.4000212448127 366.6530474842883C630.0666891220101 366.10763080097684 645.9333562728889 540.9136778023006 685.6000241500864 530.2780524777272C725.2666920272836 519.6424271531537 741.1333591781623 308.51162904328635 780.8000270553598 315.60204592633534C820.4666949325572 322.6924628093843 856.1666960220348 512.4974686017734 876.0000299606334 564.3120535163624 " transform="rotate(48, 400, 400)"></path><path d="M-46.24999914884563 534.4075586322831C-27.6562485814094 483.0190805015312 5.81250243997583 309.7299736506674 43.00000357484831 287.742863604674C80.18750470972074 265.7557535586807 95.06250516366973 437.56200880179154 132.25000629854222 428.86943041151505C169.43750743341468 420.1768520212386 184.31250788736372 242.18352627681338 221.50000902223616 246.0184873313471C258.68751015710865 249.85344838588082 273.56251061105763 427.33544598970155 310.7500117459301 447.27724347327694C347.93751288080256 467.21904095685227 362.8125133347515 325.63227882346723 400.00001446962403 341.73911525250884C437.1875156044964 357.8459516815505 452.06251605844545 518.9654487860273 489.25001719331806 524.5900583326768C526.4375183281905 530.2146678793263 541.3125187821394 369.24856921703076 578.5000199170119 368.73724107642624C615.6875210518845 368.2259129358217 630.5625215058334 532.1065819995629 667.7500226407059 522.1356832577751C704.9375237755784 512.1647845159875 719.8125242295273 314.2296612879869 757.0000253643999 320.87692711584543C794.1875264992724 327.52419294370384 827.6562775206576 505.4663858740686 846.2500280880938 554.0425592314957 " transform="rotate(45, 400, 400)"></path><path d="M-16.499999205589262 525.4470567579694C0.8541679906845587 477.4844771692676 32.09166894397745 315.7479774417948 66.8000033365251 295.226674732201C101.50833772907271 274.70537202260715 115.39167148609175 435.0578769161773 150.1000058786394 426.94480375191927C184.80834027118703 418.83173058766124 198.69167402820614 252.70462655953105 233.40000842075375 256.2839235437625C268.1083428133014 259.863220527994 281.99167657032046 425.5130849582266 316.70001096286813 444.1254292762303C351.40834535541575 462.737773594234 365.2916791124348 330.59012893640795 400.00001350498246 345.6231762701801C434.7083478975301 360.6562236039523 448.5916816545491 511.03442090146405 483.30001604709673 516.2840564783369C518.0083504396445 521.5336920552097 531.8916841966634 371.29866663706724 566.6000185892111 370.82142703916975C601.3083529817588 370.3441874412722 615.1916867387778 523.2994785674305 649.9000211313255 513.9933064084287C684.6083555238732 504.6871342494269 698.4916892808922 319.947685903293 733.2000236734399 326.1518006759609C767.9083580659876 332.3559154486288 799.1458590192804 498.43529551696923 816.5000262155543 543.7730573172346 " transform="rotate(42, 400, 400)"></path><path d="M13.250000737667108 516.4865472542613C29.364584562778518 471.9498662076096 58.37083544797906 321.76597360352764 90.60000309820185 302.71047823033336C122.82917074842464 283.65498285713915 135.72083780851375 432.5537374011685 167.9500054587366 425.02016946292895C200.1791731089594 417.4866015246893 213.07084016904855 263.2257192128542 245.3000078192714 266.5493521267834C277.52917546949413 269.8729850407126 290.4208425295833 423.6907162973572 322.65001017980615 440.9736074497892C354.87917783002894 458.2564986022212 367.770844890118 335.54797141995414 400.00001254034083 349.5072296584569C432.2291801905636 363.4664878969596 445.12084725065273 503.10338538750625 477.35001490087564 507.97804699460244C509.5791825510985 512.8527086016986 522.4708496111874 373.3487564277092 554.7000172614104 372.9056053725186C586.9291849116332 372.4624543173281 599.8208519717222 514.4923675059038 632.0500196219451 505.85092192968773C664.279187272168 497.2094763534717 677.1708543322569 325.66570288920457 709.4000219824799 331.4266666066819C741.6291896327027 337.1876303241592 770.6354405179032 491.4041975304753 786.7500243430146 533.5035477735789 " transform="rotate(39, 400, 400)"></path><path d="M43.00000068092349 507.5260682681312C57.87500113487248 466.41528576352965 84.65000195198067 327.7840002828386 114.40000285987864 310.1943122460439C144.15000376777658 292.6046242092492 156.0500041309358 430.04962840373787 185.80000503883377 423.0955656915167C215.55000594673174 416.1415029792956 227.45000630989097 273.7468423837554 257.200007217789 276.8148112273824C286.9500081256869 279.8827800710094 298.85000848884613 421.8683781540659 328.6000093967441 437.8218161409262C358.3500103046421 453.7752541277865 370.25001066780123 340.50584442107845 400.0000115756992 353.39131356431176C429.7500124835972 366.27678270754507 441.6500128467564 495.1723803911266 471.40001375465437 499.6720680284461C501.1500146625524 504.17175566576566 513.0500150257114 375.3988767359293 542.8000159336095 374.9898142234457C572.5500168415076 374.5807517109621 584.4500172046667 505.685286961955 614.2000181125647 497.70856796852485C643.9500190204627 489.7318489750947 655.8500193836218 331.38375039269425 685.6000202915199 336.701563054981C715.3500211994179 342.01937571726774 742.1250220165261 484.37313006155955 757.000022470475 523.2340687475013 " transform="rotate(36, 400, 400)"></path><path d="M72.75000062417986 498.5655663938175C86.38541770696644 460.8806824312661 110.92916845598228 333.802004073966 138.20000262155543 317.6781233735709C165.47083678712855 301.55424267317574 176.3791704533578 427.5454965181236 203.65000461893095 421.17093903192097C230.92083878450413 414.7963815457182 241.82917245073338 284.26794266647306 269.1000066163066 287.08024743979774C296.3708407818797 289.8925522131225 307.27917444810896 420.046017122591 334.5500086136821 434.67000194387964C361.82084277925526 449.29398676516826 372.7291764454844 345.46369453401917 400.00001061105763 357.27537458198304C427.2708447766308 369.0870546299469 438.17917844286006 487.24135250656326 465.45001260843316 491.3660661741062C492.72084677400636 495.4907798416491 503.6291804402356 377.4489741559658 530.9000146058088 377.07400018618915C558.170848771382 376.6990262164125 569.079182437611 496.87818352982265 596.3500166031844 489.56619111917837C623.6208507687576 482.2541987085341 634.5291844349866 337.10177500800035 661.8000186005598 341.97643661509653C689.070852766133 346.8510982221927 713.6146035151489 477.3420397044602 727.2500205979354 512.9645668332402 " transform="rotate(33, 400, 400)"></path><path d="M102.50000056743625 489.6050492607148C114.8958342790604 455.3460638402135 137.2083349599839 339.81999260630425 162.0000023832322 325.1619192423087C186.7916698064805 310.50384587831314 196.70833677577983 425.0413493737204 221.50000419902815 419.24629711353606C246.29167162227648 413.4512448533518 256.2083385915758 294.78902769040167 281.0000060148241 297.34566839342415C305.7916734380724 299.90230909644663 315.70834040737174 418.2236408323271 340.50000783062006 431.518172488044C365.2916752538684 444.81270414376087 375.2083422231677 350.4215293881708 400.000009646416 361.15942034086527C424.79167706966433 371.8973112935597 434.7083440389637 479.31030936321093 459.500011462212 483.06004906097724C484.2916788854603 486.8097887587435 494.20834585475956 379.4990563172132 519.000013278008 379.15817089014354C543.7916807012564 378.81728546307386 553.7083476705556 488.0710648389013 578.5000150938039 481.42379901104283C603.2916825170523 474.77653318318437 613.2083494863516 342.8197843645173 638.0000169095998 347.251294916423C662.7916843328483 351.6828054683286 685.1041850137717 470.3109340885718 697.5000187253959 502.69504966018985 " transform="rotate(30, 400, 400)"></path><path d="M132.25000051069262 480.6445397570066C143.40625085115437 449.81145287855543 163.4875014639855 345.8379887680371 185.80000214490897 332.6457227404411C208.11250282583245 319.45345671284514 217.03750309820185 422.53720985871166 239.35000377912533 417.32166282454574C261.6625044600488 412.1061157903799 270.5875047324182 305.31012034372475 292.90000541334166 307.61109697644497C315.2125060942652 309.9120736091652 324.1375063666346 416.40127217145766 346.4500070475581 428.3663506616029C368.7625077284815 440.3314291517481 377.6875080008509 355.379371871717 400.0000086817744 365.043473729142C422.3125093626979 374.70757558656703 431.23750963506734 471.37927384925314 453.5500103159908 474.7540395772428C475.8625109969143 478.12880530523245 484.78751126928364 381.54914610785517 507.1000119502072 381.2423492234925C529.4125126311308 380.9355523391298 538.3375129035 479.26395377737447 560.6500135844235 473.2814145323018C582.9625142653471 467.29887528722924 591.8875145377165 348.5378013504289 614.2000152186399 352.52616084714396C636.5125158995635 356.51452034385903 656.5937665123945 463.27983610207787 667.7500168528562 492.4255401165342 " transform="rotate(27, 400, 400)"></path><path d="M161.99998519515992 471.68405314148197C171.91665216445926 444.276864805081 189.76665270919804 351.8560078179536 209.5999866477967 340.1295491267571C229.43332058639533 328.40309043556067 237.3666541618348 420.0330932318865 257.1999881004335 415.397051423739C277.0333220390321 410.76100961559155 284.96665561447156 315.8312358852315 304.7999895530702 317.87654844764944C324.6333234916689 319.92186101006746 332.5666570671084 414.57892639877184 352.399991005707 425.2145517233454C372.23332494430565 435.85017704791886 380.16665851974506 360.33723724344685 399.99999245834374 368.92755000560237C419.8333263969424 377.5178627677579 427.76665997238183 463.4482612234789 447.5999939109805 466.44805298169194C467.4333278495792 469.447844739905 475.3666614250186 383.5992587866807 495.1999953636173 383.326550445025C515.033329302216 383.0538421033693 522.9666628776554 470.4568656040312 542.7999968162542 465.13905294174447C562.6333307548528 459.8212402794577 570.566664330292 354.25584122452403 590.3999982688908 357.8010496660485C610.2333322074895 361.346258107573 628.0833327522283 456.2487610037676 637.9999997215276 482.1560534610621 " transform="rotate(24, 400, 400)"></path><path d="M191.74998513841632 462.72353600837926C200.42706873655322 438.74224621402834 216.04581921319965 357.8739963502919 233.39998640947348 347.613344995495C250.7541536057473 337.35269364069813 257.69582048425684 417.5289460874832 275.04998768053065 413.47240950535416C292.40415487680445 409.41587292322515 299.345821755314 326.3523209091601 316.6999889515878 328.1419694012758C334.05415614786165 329.93161789339155 340.99582302637117 412.75655010850784 358.34999022264503 422.0627222675097C375.70415741891884 431.36889442651153 382.64582429742836 365.2950720975985 399.99999149370217 372.8115957644846C417.354158689976 380.3281194313707 424.2958255684855 455.51721808012655 441.6499927647593 458.14203586856297C459.00415996103317 460.7668536569994 465.94582683954263 385.6493409479282 483.2999940358165 385.4107211489794C500.65416123209036 385.17210135003063 507.5958281105998 461.64974691310977 524.9499953068737 456.99666083360887C542.3041625031476 452.343574754108 549.245829381657 359.973850581041 566.5999965779308 363.075907967375C583.9541637742047 366.17796535370894 599.5729142508511 449.2176553878792 608.2499978489881 471.8865362880118 " transform="rotate(21, 400, 400)"></path><path d="M221.49998508167266 453.76303031936834C228.93748530864718 433.2076390670676 242.3249857172013 363.89199632672205 257.1999861711503 355.09715230832467C272.0749866250992 346.30230828992734 278.02498680667884 415.02481038717167 292.8999872606278 411.54777903106105C307.7749877145768 408.07074767495055 313.72498789615645 336.87341737718043 328.59998835010543 338.40740179899393C343.4749888040544 339.94138622080743 349.424988985634 410.9341852623357 364.299989439583 418.91090425576584C379.17498989353203 426.887623249196 385.12499007511155 370.25291839584196 399.99999052906054 376.6956529674586C414.8749909830095 383.13838753907527 420.82499116458916 447.586186380866 435.6999916185381 449.8360301995258C450.57499207248713 452.08587401818556 456.52499225406666 387.6994345532674 471.3999927080157 387.4949032970256C486.27499316196474 387.2903720407838 492.22499334354427 452.8426396662802 507.0999937974933 448.8542801695652C521.9749942514422 444.86592067285005 527.9249944330218 365.6918713816499 542.7999948869708 368.3507777127932C557.6749953409198 371.0096840439366 571.062495749474 442.1865612160825 578.4999959764484 461.6170305590534 " transform="rotate(18, 400, 400)"></path><path d="M251.24998502492906 444.8025284450547C257.44790188074114 427.673035734804 268.60415222120287 369.9100001178494 280.99998593282703 362.58096343585163C293.3958196444512 355.2519267538538 298.35415312910084 412.5206785015574 310.749986840725 409.62315237146527C323.14582055234916 406.72562624137316 328.1041540369988 347.3945176598981 340.49998774862297 348.67283801140934C352.89582146024713 349.9511583629206 357.8541549448968 409.1118242308608 370.24998865652094 415.75909005871927C382.6458223681451 422.40635588657767 387.60415585279475 375.2107685087827 399.9999895644189 380.5797139851299C412.3958232760431 385.9486594614771 417.3541567606928 439.65515849630276 429.74999047231694 441.5300283451859C442.1458241839411 443.404898194069 447.1041576685907 389.7495319733039 459.49999138021496 389.57908925976903C471.89582509183913 389.4086465462342 476.8541585764887 444.0355362341479 489.2499922881129 440.71190332021865C501.6458259997371 437.38827040628945 506.60415948438674 371.4098959969559 518.9999931960108 373.6256512729087C531.3958269076351 375.8414065488615 542.5520772480968 435.15547085898316 548.7499941039089 451.3475286447922 " transform="rotate(15, 400, 400)"></path><path d="M281.0000002269745 435.84201894134645C285.95833371162416 422.13842477314597 294.88333398399357 375.92799627958226 304.80000095329285 370.06476693398406C314.7166679225922 364.2015375883858 318.6833347103119 410.0165389865487 328.6000016796113 407.69851808247495C338.5166686489106 405.38049717840124 342.48333543663034 357.91561031322124 352.4000024059296 358.93826659443016C362.31666937522897 359.9609228756392 366.28333616294873 407.2894555699914 376.20000313224807 412.60726823227816C386.11667010154736 417.92508089456487 390.08333688926706 380.1686109923289 400.0000038585664 384.46376737340665C409.91667082786574 388.75892375448444 413.88333761558545 431.7241229823449 423.8000045848848 433.22401886145144C433.71667155418413 434.723914740558 437.68333834190383 391.7996217639458 447.6000053112032 391.663267593118C457.5166722805025 391.52691342229014 461.4833390682222 435.2284251726211 471.4000060375216 432.5695188414777C481.3166730068209 429.9106125103343 485.28333979454055 377.1279129828675 495.20000676383995 378.90051720362976C505.1166737331393 380.673121424392 514.0416740055086 428.1243728724893 519.0000074901584 441.07801910113653 " transform="rotate(12, 400, 400)"></path><path d="M310.74999254083633 426.88151515968417C314.4687426543236 416.6038195335338 321.1624928586007 381.945998163361 328.59999308557514 377.54857615416233C336.0374933125496 373.1511541449637 339.0124934033394 407.51240519358583 346.4499936303139 405.7738895155305C353.8874938572884 404.0353738374753 356.8624939480782 368.4367086885902 364.2999941750527 369.203700899497C371.7374944020272 369.9706931104037 374.712494492817 405.4670926311678 382.1499947197915 409.45545212788295C389.587494946766 413.44381162459797 392.5624950375558 385.126459197921 399.9999952645303 388.3478264837293C407.43749549150476 391.5691937695376 410.4124955822946 423.793093190433 417.84999580926905 424.9180150997629C425.28749603624357 426.0429370090928 428.26249612703333 393.84971727663367 435.69999635400785 393.74745164851277C443.1374965809824 393.64518602039186 446.11249667177213 426.4213198331401 453.54999689874666 424.4271400847826C460.9874971257211 422.432960336425 463.9624972165109 382.84593569082494 471.3999974434854 384.17538885639664C478.8374976704599 385.50484202196833 485.531247874737 421.09328060804125 489.2499979882242 430.8085152795267 " transform="rotate(9, 400, 400)"></path><path d="M340.49999629879 417.92101137802183C342.9791630411148 411.0692142939216 347.4416631772995 387.96400004713973 352.39999666194916 385.03238537434066C357.35833014659886 382.10077070154153 359.3416635404587 405.008271400623 364.2999970251084 403.8492609485861C369.258330509758 402.69025049654925 371.2416639036179 378.95780706395925 376.19999738826755 379.4691352045637C381.1583308729172 379.98046334516823 383.14166426677707 403.6447296923443 388.09999775142677 406.3036360234877C393.0583312360764 408.96254235463107 395.04166462993624 390.0843074035131 399.99999811458594 392.23188559405196C404.95833159923563 394.3794637845908 406.94166499309546 415.86206339852106 411.89999847774516 416.61201133807435C416.8583319623948 417.36195927762765 418.8416653562547 395.8998127893216 423.7999988409043 395.83163570390764C428.75833232555397 395.7634586184937 430.74166571941385 417.6142144936592 435.69999920406354 416.2847613280875C440.6583326887132 414.9553081625158 442.641666082573 388.56395839878235 447.5999995672227 389.4502605091635C452.5583330518724 390.3365626195446 457.02083318805705 414.0621883435933 459.49999993038193 420.5390114579169 " transform="rotate(6, 400, 400)"></path><path d="M370.24999624204634 408.9605056890109C371.4895796132088 405.5346071469608 373.7208296813011 393.98200002356987 376.199996423626 392.51619268717036C378.6791631659508 391.05038535077074 379.67082986288074 402.5041357003115 382.14999660520556 401.92463047429305C384.6291633475304 401.3451252482746 385.6208300444603 389.4789035319796 388.09999678678514 389.73456760228186C390.57916352910996 389.9902316725841 391.5708302260399 401.82236484617215 394.0499969683648 403.15181801174384C396.52916371068955 404.48127117731553 397.5208304076195 395.04215370175655 399.9999971499443 396.115942797026C402.4791638922692 397.1897318922954 403.47083058919907 407.93103169926053 405.94999733152395 408.3060056690372C408.42916407384877 408.6809796388138 409.4208307707787 397.9499063946608 411.89999751310353 397.9158178519538C414.37916425542835 397.88172930924685 415.3708309523583 408.80710724682956 417.8499976946831 408.14238066404374C420.329164437008 407.4776540812579 421.3208311339379 394.2819791993912 423.79999787626275 394.72513025458176C426.2791646185876 395.1682813097723 428.5104146866799 407.03109417179667 429.74999805784233 410.26950572895845 " transform="rotate(3, 400, 400)"></path></g></svg>