<svg xmlns="http://www.w3.org/2000/svg" version="1.1" xmlns:xlink="http://www.w3.org/1999/xlink" xmlns:svgjs="http://svgjs.dev/svgjs" viewBox="0 0 600 600">
	<path d="M422.62483946888995 171.6625800557129C408.62621275990557 160.54217549435222 399.20658588816076 152.43081939490563 376.31163756459307 146.54354624223635C353.4166892410254 140.6562730895671 312.59825865834307 135.16148650916344 285.2551495274837 136.33894113969728C257.9120403966243 137.51639577023116 231.09225432484698 143.92698180945638 212.25298277943682 153.60827402543947C193.41371123402666 163.28956624142253 182.5549542149837 180.03558369747722 172.21952025502276 194.42669443559572C161.88408629506182 208.81780517371422 152.0719753941829 222.16229522498375 150.2403790196712 239.95493845415018C148.40878264515948 257.74758168331675 153.24941730905923 283.65156575314097 161.22994200795245 301.18255381059544C169.21046670684566 318.7135418680498 183.07827473093423 330.357272031624 198.12352721303057 345.1408667988767C213.16877969512691 359.92446156612925 236.84869099069985 378.10957610877244 251.50145690053057 389.88412241411106C266.1542228103613 401.65866871944957 275.3122021397884 411.7324653096189 286.04012267201495 415.78814463090794C296.7680432042415 419.843823952197 302.2628399571712 420.2363003519365 315.86898009388995 414.21819834184544C329.4751202306087 408.20009633175425 351.58508523711913 393.54733042192356 367.67696349232745 379.67953257036106C383.76884174753576 365.81173471879856 398.8141094884212 350.3739956644365 412.42024962513995 331.01141123247044C426.0263897618587 311.64882680050425 441.3332796137467 283.12826558224253 449.31380431263995 263.5040259785642C457.2943290115332 243.8797863748859 464.751558625791 228.572881264209 460.3033978184993 213.2659736104004C455.85523701120763 197.95906595659181 436.6234661778743 182.7829846170736 422.62483946888995 171.6625800557129C408.62621275990557 160.54217549435222 399.20658588816076 152.43081939490563 376.31163756459307 146.54354624223635 " fill="url(&quot;#ssshape-pattern2&quot;)" transform="matrix(1.4071004226562505,0,0,1.4071004226562505,-130.21382597183361,-90.45087193823605)">
	</path>
	<defs>
		<pattern id="ssshape-pattern2" width="76" height="76" viewBox="0 0 40 40" patternUnits="userSpaceOnUse" patternTransform="scale(1) rotate(32)">
			<rect width="100%" height="100%" fill="hsl(340, 45%, 50%)">
			</rect>
			<path d="M0 20v20l14-20L20 0l-20 20zM20 20v20l14-20L40 0l-20 20z" fill="hsl(340, 45%, 25%)" fill-opacity="0.5">
			</path>
			<path d="M0 40v-20l20-20l-10 20zM20 40v-20l20-20l-10 20zM20 20v20l-20 20l9-20zM20-20v20l-20 20l9-20zM40 20v20l-20 20l9-20zM40-20v20l-20 20l9-20z" fill="hsl(340, 45%, 25%)">
			</path>
		</pattern>
	</defs>
</svg>
