<svg xmlns="http://www.w3.org/2000/svg" version="1.1" xmlns:xlink="http://www.w3.org/1999/xlink" xmlns:svgjs="http://svgjs.dev/svgjs" viewBox="0 0 600 600"><path d="M12.00606738487005 174.12962071661042C11.856366782974398 126.22542938156809 -4.011896938491667 66.34518417282786 11.107863773496149 60.057759449520574C26.227624485483965 53.770334726213285 67.09588816721359 116.49489196701732 102.72463165679693 136.40507237676667C138.35337514638027 156.31525278651603 190.00008713165045 169.1895012911547 224.88032471099615 179.51884190801667C259.76056229034185 189.84818252487864 271.8862959837826 191.79429102504142 312.00605713287115 198.38111607793854C352.1258182819597 204.96794113083567 426.6767317747982 201.22542302373932 465.5988916055274 219.03979222539948C504.5210514362566 236.85416142705964 535.0599715208921 277.273317819475 545.5390161172461 305.2673312878995C556.0180607136003 333.261344756324 542.5450179076108 368.1415937797615 528.4731591836523 387.00387303594636C514.401300459694 405.86615229213123 491.94619181711596 408.26136510137604 461.10786377349615 418.44100682500886C430.26953572987634 428.62064854864167 375.0300185179623 436.10567967657136 343.44319092193365 448.08172337774323C311.856363325905 460.0577670789151 296.73659963368493 476.52481826706617 271.5868981973243 490.2972690320401C246.43719676096362 504.06971979701405 221.28749659616867 521.5846886690845 192.5449823037696 530.7164279675869C163.8024680113705 539.8481672660896 125.77851775247973 547.4829125460376 99.13181244292974 545.0877048230557C72.48510713337977 542.692497100074 47.48510915993771 526.6745222465584 32.66475044646978 516.3451816296963C17.844391733001864 506.01584101283436 13.6527740057222 511.2553734835375 10.209660162122248 483.11166112188386C6.766546318522295 454.96794876023023 11.706666181078745 398.9799141939867 12.00606738487005 347.4829074597745C12.305468588661356 295.98590072556226 12.155767986765696 222.03381205165275 12.00606738487005 174.12962071661042C11.856366782974398 126.22542938156809 -4.011896938491667 66.34518417282786 11.107863773496149 60.057759449520574 " fill="hsl(70, 69%, 60%)" transform="matrix(1.047375,0,0,1.047375,-12.550628308951843,-14.212592710018157)"></path><path d="M-60.84726738049028 117.44834741439803C-60.99696798238593 69.5441560793557 -76.865231703852 9.663910870615474 -61.74547099186418 3.376486147308185C-46.625710279876365 -2.910938575999104 -5.7574465981467355 59.813618664804935 29.8712968914366 79.72379907455428C65.50004038101994 99.63397948430364 117.14675236629012 112.50822798894231 152.02698994563582 122.83756860580428C186.90722752498152 133.16690922266625 199.03296121842226 135.11301772282903 239.15272236751082 141.69984277572615C279.2724835165994 148.28666782862328 353.8233970094379 144.54414972152694 392.74555684016707 162.3585189231871C431.66771667089625 180.17288812484725 462.2066367555317 220.5920445172626 472.6856813518858 248.5860579856871C483.16472594823995 276.58007145411153 469.69168314225044 311.46032047754903 455.61982441829207 330.32259973373397C441.54796569433375 349.1848789899188 419.09285705175563 351.58009179916365 388.2545290081358 361.75973352279647C357.416200964516 371.9393752464293 302.17668375260195 379.42440637435897 270.5898561565733 391.40045007553084C239.0030285605447 403.3764937767027 223.8832648683246 419.8435449648537 198.73356343196394 433.6159957298277C173.58386199560326 447.3884464948016 148.43416183080834 464.9034153668719 119.69164753840926 474.0351546653746C90.94913324601018 483.16689396387704 52.925182987119385 490.80163924382504 26.278477677569413 488.40643152084334C-0.3682276319805595 486.0112237978614 -25.36822560542263 469.9932489443458 -40.18858431889055 459.66390832748397C-55.00894303235847 449.3345677106219 -59.20056075963813 454.57410018132504 -62.64367460323808 426.43038781967147C-66.08678844683803 398.2866754580178 -61.146668584281585 342.29864089177426 -60.84726738049028 290.8016341575621C-60.547866176698975 239.30462742334987 -60.697566778594634 165.35253874944036 -60.84726738049028 117.44834741439803C-60.99696798238593 69.5441560793557 -76.865231703852 9.663910870615474 -61.74547099186418 3.376486147308185 " fill-opacity="0.28" fill="hsl(70, 69%, 60%)" opacity="1" stroke-opacity="1" stroke-width="0" stroke="hsl(340, 45%, 30%)" transform="matrix(1.09974375,0,0,1.09974375,51.71973642046453,47.99537997262479)"></path></svg>