<svg xmlns="http://www.w3.org/2000/svg" version="1.1" xmlns:xlink="http://www.w3.org/1999/xlink" xmlns:svgjs="http://svgjs.dev/svgjs" viewBox="0 0 600 600"><path d="M7.995091643164415 133.87049655920435C7.695690439373109 78.93037904109727 -18.05281253036871 23.840555000366464 7.096888031790513 30.577081489624277C32.24658859394974 37.31360797888209 99.76155742628362 146.2956439336754 158.89329501611974 174.28965549475123C218.02503260595586 202.28366705582707 308.5939023159244 188.96031233475773 361.88731357080724 198.54115085607935C415.18072482569005 208.12198937740098 451.70765150212236 208.42139479325382 478.65376254541667 231.77468662268092C505.59987358871 255.12797845210798 531.3484087449602 309.61898339595564 523.5639798305721 338.66090183264185C515.7795509161841 367.7028202693281 476.1088711879946 384.16990960445173 431.9471890590885 406.0261972427981C387.78550693018224 427.8824848811445 307.845384961595 446.74473361975123 258.59388705713536 469.79862766272C209.34238915267574 492.85252170568873 177.45616456491734 536.2657297134997 136.43820163233067 544.3495615006091C95.420238699744 552.4333932877184 33.743593857914064 548.9902475357653 12.486109461615342 518.3016183853751C-8.771374934683383 487.6129892349856 9.641798224280137 424.28964023596217 8.893295254538316 360.21778659826685C8.144792284796495 296.14593296057154 8.294492846955713 188.81061407731144 7.995091643164415 133.87049655920435C7.695690439373109 78.93037904109727 -18.05281253036871 23.840555000366464 7.096888031790513 30.577081489624277 " fill="hsl(70, 69%, 60%)" transform="matrix(1.0447565625,0,0,1.0447565625,-8.877021343123374,-10.280600827290982)"></path><path d="M-39.286707970668886 89.29221349360955C-39.586109174460205 34.352095975502465 -65.33461214420201 -20.73772806522834 -40.18491158204279 -14.001201575970526C-15.035211019883548 -7.264675086712714 52.479757812450316 101.71736086808059 111.61149540228644 129.71137242915643C170.74323299212256 157.70538399023226 261.3121027020911 144.38202926916293 314.60551395697394 153.96286779048455C367.89892521185675 163.54370631180618 404.425851888289 163.84311172765902 431.3719629315833 187.19640355708611C458.3180739748776 210.54969538651324 484.0666091311276 265.04070033036083 476.28218021673945 294.08261876704705C468.4977513023516 323.12453720373327 428.82707157416144 339.59162653885693 384.6653894452552 361.4479141772033C340.50370731634894 383.3042018155497 260.5635853477617 402.1664505541564 211.31208744330206 425.2203445971252C162.06058953884246 448.2742386400942 130.17436495108404 491.6874466479069 89.15640201849737 499.7712784350162C48.138439085910704 507.85511022212506 -13.53820575591925 504.4119644701722 -34.79569015221796 473.72333531978177C-56.053174548516665 443.0347061693908 -37.64000138955316 379.71135717036736 -38.388504359294984 315.63950353267205C-39.137007329036805 251.56764989497674 -38.987306766877595 144.23233101171664 -39.286707970668886 89.29221349360955C-39.586109174460205 34.352095975502465 -65.33461214420201 -20.73772806522834 -40.18491158204279 -14.001201575970526 " fill-opacity="0.22" fill="hsl(70, 69%, 60%)" opacity="1" stroke-opacity="1" stroke-width="0" stroke="hsl(340, 45%, 30%)" transform="matrix(1.0969943906250001,0,0,1.0969943906250001,49.590946901840965,46.42619602534148)"></path></svg>