<svg xmlns="http://www.w3.org/2000/svg" version="1.1" xmlns:xlink="http://www.w3.org/1999/xlink" xmlns:svgjs="http://svgjs.dev/svgjs" viewBox="0 0 600 600"><path d="M13.721217211023315 165.55386376750744C13.571516609127663 117.64967243246511 -2.2967471123384016 57.769427223724875 12.823013599649414 51.48200250041759C27.94277431163723 45.194577777110304 68.81103799336685 107.91913501791434 104.4397814829502 127.82931542766369C140.06852497253354 147.73949583741305 191.7152369578037 160.61374434205172 226.5954745371494 170.9430849589137C261.4757121164951 181.27242557577566 273.60144580993585 183.21853407593844 313.7212069590244 189.80535912883556C353.840968108113 196.3921841817327 428.3918816009515 192.64966607463634 467.31404143168066 210.4640352762965C506.23620126240985 228.27840447795666 536.7751213470453 268.697560870372 547.2541659433994 296.6915743387965C557.7332105397536 324.685587807221 544.2601677337641 359.5658368306585 530.1883090098056 378.4281160868434C516.1164502858472 397.29039534302825 493.6613416432692 399.68560815227306 462.8230135996494 409.8652498759059C431.9846855560296 420.0448915995387 376.74516834411554 427.5299227274684 345.1583407480869 439.50596642864025C313.5715131520583 451.4820101298121 298.4517494598382 467.9490613179632 273.30204802347754 481.7215120829371C248.15234658711688 495.49396284791106 223.00264642232193 513.0089317199818 194.26013212992285 522.1406710184842C165.51761783752377 531.2724103169869 127.493667578633 538.9071555969349 100.84696226908301 536.511947873953C74.20025695953304 534.1167401509713 49.20025898609097 518.0987652974557 34.37990027262305 507.7694246805935C19.55954155915513 497.4400840637314 15.367923831875466 502.6796165344345 11.924809988275513 474.5359041727809C8.48169614467556 446.39219181112725 13.42181600723201 390.4041572448837 13.721217211023315 338.9071505106715C14.02061841481462 287.4101437764593 13.870917812918961 213.45805510254976 13.721217211023315 165.55386376750744C13.571516609127663 117.64967243246511 -2.2967471123384016 57.769427223724875 12.823013599649414 51.48200250041759 " fill="hsl(70, 69%, 60%)" transform="matrix(1.047375,0,0,1.047375,-12.550628308951843,-14.212592710018157)"></path><path d="M-79.69777387194688 111.80077113790827C-79.84747447384254 63.89657980286594 -95.7157381953086 4.016334594125716 -80.59597748332078 -2.271090129181573C-65.47621677133296 -8.558514852488862 -24.607953089603335 54.16604238831518 11.020790399980001 74.07622279806452C46.649533889563344 93.98640320781388 98.29624587483352 106.86065171245255 133.17648345417922 117.18999232931452C168.05672103352492 127.51933294617649 180.18245472696566 129.46544144633927 220.30221587605422 136.0522664992364C260.4219770251428 142.63909155213352 334.9728905179813 138.89657344503718 373.89505034871047 156.71094264669733C412.81721017943966 174.5253118483575 443.3561302640751 214.94446824077284 453.8351748604292 242.93848170919733C464.31421945678335 270.9324951776218 450.84117665079384 305.8127442010593 436.76931792683547 324.6750234572442C422.69745920287716 343.537302713429 400.24235056029903 345.9325155226739 369.4040225166792 356.1121572463067C338.5656944730594 366.2917989699395 283.32617726114535 373.7768300978692 251.73934966511672 385.7528737990411C220.1525220690881 397.72891750021296 205.032758376868 414.19596868836396 179.88305694050734 427.96841945333796C154.73335550414666 441.74087021831184 129.58365533935174 459.25583909038215 100.84114104695266 468.38757838888483C72.09862675455358 477.5193176873873 34.074676495662786 485.1540629673353 7.4279711861128135 482.7588552443536C-19.21873412343716 480.36364752137166 -44.21873209687923 464.34567266785604 -59.03909081034715 454.0163320509942C-73.85944952381507 443.68699143413215 -78.05106725109474 448.9265239048353 -81.49418109469468 420.7828115431817C-84.93729493829463 392.639099181528 -79.99717507573818 336.6510646152845 -79.69777387194688 285.15405788107233C-79.39837266815557 233.6570511468601 -79.54807327005123 159.7049624729506 -79.69777387194688 111.80077113790827C-79.84747447384254 63.89657980286594 -95.7157381953086 4.016334594125716 -80.59597748332078 -2.271090129181573 " fill-opacity="0.28" fill="none" opacity="1" stroke-opacity="1" stroke-width="5" stroke="hsl(305, 77%, 40%)" transform="matrix(1.0969943906250001,0,0,1.0969943906250001,50.50461241625763,48.579363506323716)"></path></svg>