<svg xmlns="http://www.w3.org/2000/svg" version="1.1" xmlns:xlink="http://www.w3.org/1999/xlink" xmlns:svgjs="http://svgjs.dev/svgjs" viewBox="0 0 600 600" opacity="1">
	<path d="M425.5600448266467 14.779019439000905C376.76110480386023 -34.935723857304396 280.20983527261023 -72.614270762822 234.02745205320917 -73.13758364937799C187.84506883380817 -73.66089653593397 175.93968604165315 -31.403359965702833 148.46574551024042 11.639142119664967C120.99180497882767 54.68164420503288 70.6229186669787 123.75896684704136 69.18380886473261 185.1174288628293C67.74469906248652 246.47589087861707 81.48167822915318 345.77456387259474 139.83108669676386 379.78991421439173C198.18049516437458 413.80526455618826 354.781925421536 414.9827039279329 419.2802596703967 389.20953091361037C483.7785939192574 363.4363578992877 525.774461330553 287.55596137422253 526.821092189928 225.15087612845423C527.867723049303 162.74579088268618 474.35898484943306 64.49376273530632 425.5600448266467 14.779019439000905C376.76110480386023 -34.935723857304396 280.20983527261023 -72.614270762822 234.02745205320917 -73.13758364937799 " fill="hsl(340, 45%, 50%)" transform="matrix(-1.1111813936257398,0.40443695215020514,-0.40443695215020514,-1.1111813936257398,697.8348184154559,383.8752094602222)" fill-opacity="0.29">
	</path>
	<defs>
		<pattern id="ssshape-pattern2" width="76" height="76" viewBox="0 0 40 40" patternUnits="userSpaceOnUse">
			<rect width="100%" height="100%" fill="hsl(340, 45%, 50%)">
			</rect>
			<path d="M0 20v20l14-20L20 0l-20 20zM20 20v20l14-20L40 0l-20 20z" fill="hsl(340, 45%, 25%)" fill-opacity="0.5">
			</path>
			<path d="M0 40v-20l20-20l-10 20zM20 40v-20l20-20l-10 20zM20 20v20l-20 20l9-20zM20-20v20l-20 20l9-20zM40 20v20l-20 20l9-20zM40-20v20l-20 20l9-20z" fill="hsl(340, 45%, 25%)">
			</path>
		</pattern>
	</defs>
	<path d="M392.27050243092947 58.25556680612519C343.4715624081431 8.540823509819887 246.92029287689303 -29.13772339569772 200.73790965749197 -29.661036282253704C154.55552643809096 -30.18434916880969 142.65014364593594 12.073187401421421 115.17620311452322 55.11568948678925C87.7022625831105 98.15819157215711 37.3333762712615 167.2355142141648 35.894266469015406 228.59397622995226C34.45515666676931 289.95243824573885 48.19213583343594 389.25111123971675 106.54154430104666 423.2664615815136C164.89095276865737 457.28181192331056 321.49238302581887 458.4592512950552 385.99071727467947 432.6860782807323C450.4890515235402 406.9129052664094 492.4849189348357 331.0325087413443 493.5315497942107 268.6274234955761C494.5781806535857 206.22233824980918 441.06944245371585 107.97031010243049 392.27050243092947 58.25556680612519C343.4715624081431 8.540823509819887 246.92029287689303 -29.13772339569772 200.73790965749197 -29.661036282253704 " fill-opacity="1" fill="url(&quot;#ssshape-pattern2&quot;)" opacity="1" stroke-opacity="1" stroke-width="0" stroke="hsl(340, 45%, 30%)" transform="matrix(0.9598802666025175,0.34936784550282357,-0.34936784550282357,0.9598802666025175,142.23769882165323,-7.037482270729299)">
	</path>
</svg>
