<svg xmlns="http://www.w3.org/2000/svg" viewBox="0 0 371.43 80.5"><defs><style>.cls-1{fill:#666;}.cls-2{fill:#60c5ec;}</style></defs><title>frorum-logo</title><g id="Ebene_2" data-name="Ebene 2"><g id="Ebene_1-2" data-name="Ebene 1"><path class="cls-1" d="M52,23.32v.2H70.53V37.21H52V79.28H37.48V37.21H27.54V23.52h9.94v-.91C37.48,6.69,48.63,0,60.19,0A34.73,34.73,0,0,1,73.37,2.53L70.73,14.29l-1.93-.5a25.63,25.63,0,0,0-7-1.12C55.22,12.67,52,16.12,52,23.32Z"/><path class="cls-1" d="M113.62,22.51v14.9a32.6,32.6,0,0,0-3.55-.2c-9.23,0-17.14,4-17.14,17.23V79.28H78.44V23.52H92.93v9.73c3.45-7.3,9.53-10.95,17.44-10.95A25.89,25.89,0,0,1,113.62,22.51Z"/><path class="cls-1" d="M173.23,51.4c0,16.83-12.78,29.1-29.1,29.1s-29-12.37-29-29.1a28.57,28.57,0,0,1,29-29.1C160.25,22.3,173.23,34.57,173.23,51.4Zm-43.49,0c0,9.22,6.28,15.31,14.39,15.31s14.4-6.09,14.4-15.31-6.29-15.31-14.4-15.31S129.74,42.27,129.74,51.4Z"/><path class="cls-1" d="M216,22.51v14.9a32.29,32.29,0,0,0-3.55-.2c-9.22,0-17.13,4-17.13,17.23V79.28h-14.5V23.52h14.5v9.73c3.45-7.3,9.53-10.95,17.44-10.95A25.59,25.59,0,0,1,216,22.51Z"/><path class="cls-1" d="M274,23.52V79.28H259.5V71.57a19.93,19.93,0,0,1-17.23,8.93c-12.27,0-19.87-8.42-19.87-22v-35h14.5V55.35c0,7.3,2.73,11.36,10.24,11.36,8,0,12.36-4.77,12.36-13.89V23.52Z"/><path class="cls-1" d="M371.43,44V79.28h-14.5V47.14c0-7.1-2.63-11-9.63-11-7.6,0-11.56,5.07-11.56,13.89v29.3H321.25V47.14c0-7.1-2.64-11-9.63-11C304,36.09,300,41.16,300,50l.1,29.3h-14.6V23.52h14.6v7.4a19,19,0,0,1,16.52-8.62c8,0,13.89,3.75,16.93,10.55A21.15,21.15,0,0,1,352.17,22.3C364,22.3,371.43,30.51,371.43,44Z"/><path class="cls-2" d="M16.19,79.28H4a4,4,0,0,1-4-4V63a4,4,0,0,1,4-4h12.2a4,4,0,0,1,4,4V75.29A4,4,0,0,1,16.19,79.28Z"/></g></g></svg>